<?xml version="1.0" encoding="UTF-8"?>
<svg version="1.1" xmlns="http://www.w3.org/2000/svg" width="2400" height="1800">
<path d="M0 0 C2.12043382 1.73536715 3.75643109 3.35661218 4.98828125 5.8203125 C5.08439877 7.44300241 5.11810477 9.06978556 5.11328125 10.6953125 C5.11585938 11.55898438 5.1184375 12.42265625 5.12109375 13.3125 C4.99852046 15.62697221 4.6379457 17.60320366 3.98828125 19.8203125 C5.05175781 19.76810547 5.05175781 19.76810547 6.13671875 19.71484375 C51.6930788 18.55663121 100.19003834 33.43966566 133.61328125 65.0703125 C150.55619599 82.55685017 160.30078125 105.95582097 160.30078125 130.2277832 C159.92622319 152.65657508 148.85969482 171.45229339 133.80078125 187.4453125 C102.7547022 216.98482272 56.18988518 230.4579741 13.98828125 229.8203125 C35.78966057 240.65181296 57.38020814 249.76859646 80.98828125 255.8203125 C82.24898438 256.16191406 83.5096875 256.50351562 84.80859375 256.85546875 C124.11602072 265.98192318 160.18225197 252.1553334 193.67504883 232.78930664 C197.03764579 230.85421495 200.33894405 229.14607554 203.98828125 227.8203125 C203.95347656 226.92570313 203.91867187 226.03109375 203.8828125 225.109375 C203.61273669 213.04598876 205.34707137 204.34752075 212.98828125 194.8203125 C216.7282179 190.98448004 219.62141978 189.91127625 224.98828125 189.8203125 C231.01463218 190.84253376 234.9293396 193.91875254 238.6875 198.64453125 C240.39222305 201.49597491 240.91677624 203.5082803 240.625 206.80859375 C239.60661729 210.0261833 237.69332672 212.34230139 235.49609375 214.86328125 C231.12002861 220.54309637 230.64945024 228.13315018 231.15234375 235.08984375 C231.37834324 236.67506873 231.67424953 238.25015388 231.98828125 239.8203125 C239.15706261 239.46187343 243.47189547 235.47331467 248.21875 230.46875 C255.37306613 222.11999555 261.00000679 212.77498679 265.23828125 202.6328125 C266.63019838 199.39103147 267.59652444 197.27392256 270.98828125 195.8203125 C276.9131112 195.02273924 281.15202736 196.54544875 285.98828125 199.8203125 C290.38769796 203.58968928 291.44511817 207.13754179 291.98828125 212.8203125 C291.98162615 216.17448057 291.92104495 219.50932776 291.7734375 222.859375 C291.66364285 228.02970474 292.61765461 231.33100987 294.98828125 235.8203125 C299.77588939 238.21411657 306.33399374 236.31839907 311.21875 234.84765625 C321.92791268 230.868505 331.19112544 225.87470666 339.89453125 218.45703125 C341.98828125 216.8203125 341.98828125 216.8203125 344.98828125 215.8203125 C345.53882635 214.0413292 345.53882635 214.0413292 345.73828125 211.8828125 C347.5431448 202.57740947 354.47121286 195.22050531 361.98828125 189.8203125 C371.25731374 184.15590375 380.98188192 182.44943261 391.703125 184.28515625 C399.11548273 186.21533877 404.43692493 189.87643983 409.42578125 195.6328125 C411.68481365 200.24123859 412.95023553 204.77312812 411.359375 209.8125 C408.63574742 215.12300398 404.56650013 217.67443744 399.17578125 220.0703125 C395.03750034 221.04402566 391.2115209 221.45460134 386.98828125 220.8203125 C384.48828125 219.2578125 384.48828125 219.2578125 382.98828125 216.8203125 C382.23828125 213.0703125 382.23828125 213.0703125 381.98828125 209.8203125 C375.88417793 213.01769995 372.75322164 217.55431122 369.98828125 223.8203125 C368.7257541 228.60388759 368.60066976 232.42491115 369.92578125 237.1953125 C373.15102097 241.30016305 376.83542721 243.2048151 381.94921875 244.203125 C405.36356814 245.54877726 429.92068102 229.15622779 447.16015625 215.10546875 C449.98828125 212.8203125 449.98828125 212.8203125 452.98828125 210.8203125 C453.31960916 208.29447124 453.45357394 206.00364258 453.46484375 203.47070312 C453.48003807 202.70709536 453.49523239 201.94348759 453.51088715 201.15674019 C453.55863823 198.59671781 453.58564996 196.03687485 453.61328125 193.4765625 C453.64405416 191.66252083 453.67635282 189.84850447 453.71008301 188.03451538 C453.78013489 184.15392995 453.84207439 180.27333583 453.89770508 176.39251709 C454.04515939 166.23492581 454.25226391 156.07844359 454.45703125 145.921875 C454.47719803 144.90173435 454.49736481 143.8815937 454.5181427 142.8305397 C454.89717165 123.81237468 455.52291572 104.8131616 456.39257812 85.81130981 C456.4880283 83.70090524 456.57952129 81.59036276 456.66992188 79.47973633 C456.83731866 75.59008379 457.02040331 71.70128079 457.20703125 67.8125 C457.28044739 66.12488052 457.28044739 66.12488052 457.35534668 64.40316772 C457.63839824 58.92130672 458.0353191 53.97532615 459.98828125 48.8203125 C462.79391071 46.33532641 464.58105469 45.86641362 468.30078125 45.4453125 C475.46922421 46.1743067 480.24438204 48.21388616 484.98828125 53.8203125 C486.63578589 57.11532178 486.15074375 60.76338875 486.13671875 64.3828125 C486.13457367 65.23762207 486.13242859 66.09243164 486.13021851 66.97314453 C486.06759811 74.54994992 485.52541179 82.0315651 484.81997681 89.57131958 C480.93097173 131.88642796 480.6458837 174.36107494 480.98828125 216.8203125 C482.17345337 215.81254761 482.17345337 215.81254761 483.38256836 214.78442383 C497.13375459 203.1600652 513.48580036 191.06823282 532.3359375 191.50390625 C539.96227106 192.41367505 546.63615053 195.33437851 551.98828125 200.8203125 C558.84933272 210.52041975 555.89907233 223.67938588 554.98828125 234.8203125 C570.53730591 234.37920542 584.76277786 230.60713248 599.07666016 224.61108398 C600.4250688 224.053294 601.79524946 223.54679294 603.17724609 223.07836914 C605.44081379 222.19566415 607.13247106 221.39397715 608.98828125 219.8203125 C610.30207933 216.69460102 610.50543474 213.61802849 610.73828125 210.2578125 C610.93589236 208.45221805 611.14157388 206.64748791 611.35546875 204.84375 C611.4544043 203.97717773 611.55333984 203.11060547 611.65527344 202.21777344 C612.68560811 194.79996809 615.05890869 188.5013961 620.98828125 183.8203125 C625.03993053 181.79448786 629.97889709 182.17280517 634.21875 183.5390625 C638.47458509 185.51926344 641.6893882 187.60567524 643.98828125 191.8203125 C644.5492237 196.54825599 644.05444094 199.91204078 642.56640625 204.3984375 C640.88744906 209.84390707 640.02037569 215.24009111 639.30078125 220.8828125 C639.17123047 221.81158203 639.04167969 222.74035156 638.90820312 223.69726562 C638.144317 229.45672447 637.86342587 235.0115646 637.98828125 240.8203125 C658.92876872 242.4955515 680.40624353 227.31253218 696.24438477 215.14697266 C697.3801344 214.28295705 698.5420343 213.45197165 699.73022461 212.66162109 C702.96234263 210.36704549 704.35729856 208.51234989 705.125 204.71875 C705.33410266 203.21426295 705.51724011 201.70596465 705.67578125 200.1953125 C706.60526235 192.39030808 706.60526235 192.39030808 708.30859375 189.85546875 C711.65120585 187.79548687 715.1280799 187.61418524 718.98828125 187.8203125 C724.29434608 189.39351418 728.03084298 192.08841127 730.98828125 196.8203125 C731.35538001 198.14474724 731.69526175 199.47754355 731.98828125 200.8203125 C732.74109375 200.2634375 733.49390625 199.7065625 734.26953125 199.1328125 C740.41968271 194.71425708 746.5852103 190.77503017 753.36328125 187.3828125 C754.01619141 187.05345703 754.66910156 186.72410156 755.34179688 186.38476562 C762.46666605 182.91293212 769.03337595 181.45863302 776.92578125 181.4453125 C777.68568359 181.42082031 778.44558594 181.39632812 779.22851562 181.37109375 C785.92658166 181.33677403 791.01421376 183.22910072 796.08203125 187.64453125 C799.22850567 191.81360986 801.08698049 195.30961099 800.69921875 200.63671875 C799.25243569 205.08040957 795.92641524 207.54882907 791.98828125 209.8203125 C787.75262417 211.3476684 784.69899468 211.11221266 780.48828125 209.3828125 C779.66328125 208.8671875 778.83828125 208.3515625 777.98828125 207.8203125 C777.98828125 207.1603125 777.98828125 206.5003125 777.98828125 205.8203125 C758.92928488 213.03811741 744.38287724 224.2512653 734.64453125 242.3125 C732.07507187 248.09378361 731.04535708 254.14048117 730.20166016 260.3762207 C729.72224812 263.50230727 729.34620037 265.4458509 727.12890625 267.765625 C723.06349806 269.76865458 719.06288818 269.49656559 714.8671875 268.12890625 C710.04781397 265.95153333 706.92260858 263.30810725 703.98828125 258.8203125 C702.19643093 253.98625476 701.69778229 248.90303112 700.98828125 243.8203125 C700.16328125 244.449375 699.33828125 245.0784375 698.48828125 245.7265625 C681.28521994 258.58342786 662.95875892 267.69951914 640.98828125 265.8203125 C630.45419539 264.11398802 622.2595366 258.31220909 615.98828125 249.8203125 C615.32828125 248.8303125 614.66828125 247.8403125 613.98828125 246.8203125 C613.06789063 247.27921875 612.1475 247.738125 611.19921875 248.2109375 C593.0357405 257.08473478 571.29148045 263.29976636 551.30859375 256.73046875 C540.78917792 252.60416591 534.13929179 247.72545485 529.2109375 237.27734375 C527.08218437 231.25834528 526.49125657 225.16820788 525.98828125 218.8203125 C518.22066471 222.7188881 511.57471958 227.16286468 504.98828125 232.8203125 C504.16457031 233.49835938 503.34085938 234.17640625 502.4921875 234.875 C492.76639117 243.15937566 483.16196951 253.98064689 480.05078125 266.6328125 C478.98828125 269.8203125 478.98828125 269.8203125 476.92578125 271.8203125 C472.71380885 273.25417544 469.2658179 272.93126283 464.98828125 271.8203125 C459.70533412 269.02932156 455.90218985 265.5620383 453.98828125 259.8203125 C453.76267449 257.42776674 453.5797953 255.03103127 453.42578125 252.6328125 C453.34199219 251.36050781 453.25820313 250.08820313 453.171875 248.77734375 C453.11128906 247.80152344 453.05070313 246.82570313 452.98828125 245.8203125 C451.82425781 246.67302734 451.82425781 246.67302734 450.63671875 247.54296875 C430.66535463 261.92760901 405.87045952 272.23606716 380.78515625 268.3203125 C368.01691789 265.4392741 356.34575104 259.01029067 348.98828125 247.8203125 C348.98828125 247.1603125 348.98828125 246.5003125 348.98828125 245.8203125 C348.116875 246.41199219 347.24546875 247.00367188 346.34765625 247.61328125 C330.98219347 257.87791417 315.69528064 264.21700254 296.92578125 261.1328125 C287.69684076 259.02668345 280.71290963 254.33831822 273.98828125 247.8203125 C273.03953125 248.6659375 272.09078125 249.5115625 271.11328125 250.3828125 C260.36597009 259.54516666 252.17620715 264.57944671 237.8046875 264.22265625 C226.82032101 263.06463194 219.55763232 257.50688804 211.98828125 249.8203125 C211.51261719 250.13742187 211.03695313 250.45453125 210.546875 250.78125 C209.00660914 251.80809391 207.46472805 252.83251626 205.921875 253.85546875 C203.81809114 255.26452771 201.72969732 256.68748719 199.6484375 258.12890625 C165.41594155 281.67277477 128.77010915 291.30114776 87.60546875 283.890625 C51.96929026 276.95493454 16.83026379 261.8850823 -14.01171875 242.8203125 C-15.13130806 247.30526823 -15.15291453 251.69976319 -15.14111328 256.29150391 C-15.1428656 257.13287903 -15.14461792 257.97425415 -15.14642334 258.84112549 C-15.15081788 261.6180631 -15.14791069 264.39493676 -15.14453125 267.171875 C-15.14520536 269.11135877 -15.14617627 271.05084245 -15.14743042 272.99032593 C-15.14890446 277.05719812 -15.14676363 281.12404834 -15.14208984 285.19091797 C-15.13641556 290.37883077 -15.13965878 295.56669157 -15.14566231 300.75460243 C-15.14929535 304.7628518 -15.14811639 308.77108908 -15.14553452 312.77933884 C-15.14487163 314.69051495 -15.14567113 316.60169219 -15.14801407 318.51286697 C-15.19566729 331.59757925 -15.19566729 331.59757925 -14.25631714 344.64022827 C-13.16102335 354.40248683 -13.16102335 354.40248683 -15.51171875 358.3203125 C-18.98896672 360.40666128 -21.95929589 361.11145744 -26.01171875 360.8203125 C-29.07421875 359.5078125 -29.07421875 359.5078125 -32.01171875 356.8203125 C-32.61242187 356.27503906 -33.213125 355.72976563 -33.83203125 355.16796875 C-47.08575143 340.27832913 -43.3063399 306.3506156 -42.62840462 287.393116 C-42.45522526 282.14388329 -42.36866439 276.89223855 -42.26485538 271.64126015 C-42.16974027 267.07084691 -42.04501259 262.50471752 -41.85961914 257.93701172 C-39.88976961 237.21841537 -39.88976961 237.21841537 -46.44458008 218.62353516 C-49.67152089 215.66559459 -53.11184241 213.61439995 -57.07684326 211.79447937 C-60.05910261 210.29297797 -62.16677431 208.24607946 -64.57421875 205.9453125 C-65.33734375 205.23761719 -66.10046875 204.52992188 -66.88671875 203.80078125 C-67.58796875 203.14722656 -68.28921875 202.49367188 -69.01171875 201.8203125 C-70.06359375 200.91732422 -70.06359375 200.91732422 -71.13671875 199.99609375 C-74.28642479 197.17024861 -76.38047484 194.99601628 -77.19921875 190.7578125 C-76.97634134 186.07738686 -76.14350309 184.27330549 -73.01171875 180.8203125 C-69.69043986 178.53232037 -67.66672286 177.84457191 -63.63671875 177.6953125 C-59.46855979 178.98887907 -57.48046539 180.74508714 -54.4921875 183.8359375 C-52.01950365 185.81408458 -49.69218781 187.05380583 -46.85668945 188.44433594 C-45.49807549 189.11357086 -45.49807549 189.11357086 -44.11201477 189.79632568 C-43.41891708 190.13424133 -42.7258194 190.47215698 -42.01171875 190.8203125 C-41.98523758 190.25197693 -41.95875641 189.68364136 -41.93147278 189.0980835 C-40.58106548 160.33755764 -38.91632096 131.6361374 -36.51171875 102.9453125 C-36.41025543 101.72050171 -36.30879211 100.49569092 -36.20425415 99.23376465 C-35.11723579 86.19831331 -33.89085984 73.18539235 -32.41796875 60.1875 C-32.29296997 59.07247101 -32.16797119 57.95744202 -32.03918457 56.80862427 C-31.91990601 55.78751556 -31.80062744 54.76640686 -31.67773438 53.71435547 C-31.57319946 52.81457977 -31.46866455 51.91480408 -31.36096191 50.98776245 C-31.01171875 48.8203125 -31.01171875 48.8203125 -30.01171875 46.8203125 C-67.99653751 55.95386157 -102.76295474 67.81314977 -131.01171875 95.8203125 C-131.90890625 96.70460938 -132.80609375 97.58890625 -133.73046875 98.5 C-144.38029059 109.5771295 -151.05565336 122.04464658 -155.01171875 136.8203125 C-155.28773926 137.83653687 -155.28773926 137.83653687 -155.56933594 138.87329102 C-160.15545228 157.23206247 -157.47007956 176.33570163 -148.109375 192.65234375 C-138.16197962 207.6753189 -123.80212416 217.44805993 -106.07080078 221.15820312 C-93.93345918 223.51583634 -83.7035787 222.65600989 -71.578125 220.359375 C-68.22285223 219.78853464 -66.29566166 219.69685906 -63.13671875 221.0703125 C-60.31593583 223.3933102 -59.11282523 225.04516281 -58.63671875 228.6953125 C-59.11383376 232.67127094 -60.20533126 233.98676642 -63.01171875 236.8203125 C-85.80672535 245.93831514 -113.61711109 243.11597829 -135.90478516 234.05029297 C-155.34786975 225.65874203 -169.46676764 210.51822823 -177.55078125 191.12890625 C-179.88291329 184.80760099 -181.91721755 178.47640699 -183.01171875 171.8203125 C-183.12257812 171.17707031 -183.2334375 170.53382813 -183.34765625 169.87109375 C-187.27087032 142.03748039 -180.29174412 112.39154309 -163.76171875 89.6328125 C-151.55667737 74.19825846 -137.65868601 62.26284336 -121.01171875 51.8203125 C-120.4079541 51.43875 -119.80418945 51.0571875 -119.18212891 50.6640625 C-91.79961107 33.61750182 -57.97762446 23.90736258 -26.01171875 20.8203125 C-25.97433594 20.13066406 -25.93695313 19.44101562 -25.8984375 18.73046875 C-24.85784979 3.85618561 -24.85784979 3.85618561 -20.13671875 -1.1796875 C-13.8203992 -4.15207317 -6.01740676 -3.52865406 0 0 Z M-0.01171875 43.8203125 C-2.14006723 54.0229645 -3.20734459 64.34502593 -4.32421875 74.6953125 C-4.43021393 75.67162628 -4.53620911 76.64794006 -4.64541626 77.65383911 C-9.05741196 118.58992818 -12.36968301 159.67712661 -14.01171875 200.8203125 C12.0048045 209.63556997 39.59625649 205.70420628 64.98828125 196.8203125 C66.00245117 196.46646484 66.00245117 196.46646484 67.03710938 196.10546875 C92.53864113 186.99594076 117.40229391 171.57173492 129.73828125 146.5703125 C135.68568829 132.58799794 136.48507317 118.99142214 131.1953125 104.7109375 C121.10414368 80.54438433 100.48358389 65.18425172 77.23828125 54.6328125 C53.49647034 44.89258238 25.48168024 40.35110769 -0.01171875 43.8203125 Z " fill="#393185" transform="translate(236.01171875,559.1796875)"/>
<path d="M0 0 C5.33795043 0.94067378 8.80996156 3.75705621 12.79296875 7.2421875 C15.78080349 13.96481567 13.2545692 21.89520233 11.93774414 28.81103516 C10.60257898 36.0214036 10.10206306 43.16984997 9.79296875 50.4921875 C10.38384277 50.62681396 10.9747168 50.76144043 11.58349609 50.90014648 C35.23243123 56.36439785 57.96820756 63.81250638 79.79296875 74.4921875 C80.45796387 74.81509766 81.12295898 75.13800781 81.80810547 75.47070312 C100.64955249 84.73557349 117.46187528 97.22364507 132.79296875 111.4921875 C133.81003906 112.42804688 133.81003906 112.42804688 134.84765625 113.3828125 C160.37000652 137.77766938 175.97545193 174.35497648 176.84326172 209.53076172 C176.88352231 211.80970988 176.9056327 214.08792161 176.91796875 216.3671875 C176.92509888 217.45664673 176.92509888 217.45664673 176.93237305 218.56811523 C176.92051694 222.35196851 176.59511893 225.80325258 175.79296875 229.4921875 C176.54167236 229.40654541 177.29037598 229.32090332 178.06176758 229.23266602 C181.57570228 228.83415638 185.09046127 228.44362115 188.60546875 228.0546875 C189.87745117 227.91200439 191.14943359 227.76932129 192.45996094 227.62231445 C199.03659353 226.90961071 205.53978578 226.36403236 212.15307617 226.22924805 C218.87645854 226.08982148 223.91443441 225.97349213 228.99609375 221.11328125 C238.67016084 212.38559029 254.23748825 210.96210311 266.60546875 211.1171875 C267.73388184 211.12298828 268.86229492 211.12878906 270.02490234 211.13476562 C278.58374372 211.26732763 286.53985338 212.20419512 294.79296875 214.4921875 C295.45296875 213.5228125 296.11296875 212.5534375 296.79296875 211.5546875 C298.91126135 209.02949124 300.40208895 207.97611875 303.66796875 207.4296875 C309.16897916 207.13961539 313.20000532 209.35941351 317.60546875 212.4921875 C320.75239481 215.36937704 321.73099227 216.96096056 322.23046875 221.2421875 C322.16135189 226.5209873 320.29486485 231.12986791 318.51489258 236.02099609 C316.75094046 241.06837599 316.35967847 244.37329363 317.79296875 249.4921875 C319.34096017 251.04017892 320.75668859 250.77445931 322.91796875 250.8671875 C338.68886069 250.64285049 355.33452349 241.0673827 366.9375 230.9609375 C368.79296875 229.4921875 368.79296875 229.4921875 370.79296875 229.4921875 C370.84904297 227.98978516 370.84904297 227.98978516 370.90625 226.45703125 C371.53775323 212.67641962 371.53775323 212.67641962 374.79296875 207.4921875 C378.52626084 205.09619407 381.29050778 205.35206165 385.546875 205.953125 C391.06710266 207.27797964 394.72007739 210.88285047 397.79296875 215.4921875 C397.79296875 216.4821875 397.79296875 217.4721875 397.79296875 218.4921875 C398.7365625 217.83992187 399.68015625 217.18765625 400.65234375 216.515625 C408.41756762 211.20493176 416.12290177 206.2343959 424.79296875 202.4921875 C425.57414062 202.15316406 426.3553125 201.81414062 427.16015625 201.46484375 C435.61770562 198.37513295 448.21750517 197.33432477 456.54296875 201.1171875 C460.59687846 203.66796215 463.64976288 207.20577577 465.79296875 211.4921875 C466.32251292 215.91084297 466.38009324 219.41187843 464.23046875 223.3671875 C460.74026872 226.40992598 457.41031777 228.41520665 452.66796875 228.5546875 C448.49936452 228.18686948 446.64643473 227.34565348 443.79296875 224.4921875 C431.10574342 225.59223594 421.31515328 234.87218737 412.79296875 243.4921875 C412.02855469 244.24628906 411.26414062 245.00039063 410.4765625 245.77734375 C402.19780738 254.43311998 398.27168759 263.84148522 396.99291992 275.6171875 C396.50861895 279.41701914 395.84330975 281.42863407 393.44140625 284.4609375 C390.5062592 286.71208273 388.60236879 287.16791448 384.91015625 286.91015625 C379.38758666 285.81990727 374.24157435 283.06676883 370.7578125 278.55078125 C368.57350757 273.89034118 368.29697282 268.562318 367.79296875 263.4921875 C366.82359375 264.02328125 365.85421875 264.554375 364.85546875 265.1015625 C350.23020812 272.89777147 334.26452579 278.78091969 317.54296875 274.3046875 C308.77186769 271.23905994 299.13213512 266.17052024 294.79296875 257.4921875 C291.56784201 258.94069356 288.76400802 260.85103932 285.87011719 262.86889648 C270.80569525 273.31862276 254.62734221 281.41718734 235.79296875 279.4921875 C227.62857805 277.6003011 220.8803176 273.13089075 216.22265625 266.1328125 C213.20669614 260.5834459 212.0970458 255.77644654 211.79296875 249.4921875 C211.18090576 249.61190918 210.56884277 249.73163086 209.93823242 249.85498047 C201.70002096 251.41431578 193.41681601 252.53712012 185.10546875 253.6171875 C183.71025389 253.80053356 182.31507135 253.98412577 180.91992188 254.16796875 C177.54457923 254.61178543 174.16893399 255.05313627 170.79296875 255.4921875 C170.64980225 256.57846436 170.50663574 257.66474121 170.35913086 258.78393555 C165.45424745 290.90997006 135.57411464 324.37717493 110.328125 343.05859375 C88.73790101 358.1723697 65.83504882 368.34721574 40.48046875 375.3046875 C39.43197754 375.59480713 38.38348633 375.88492676 37.30322266 376.18383789 C24.76123989 379.5080417 12.40438872 380.84843411 -0.53833008 380.80786133 C-2.64001137 380.80469431 -4.74028706 380.82830828 -6.84179688 380.85351562 C-29.40977336 380.95918728 -50.2593997 374.53297444 -66.9765625 358.87890625 C-73.83784011 351.53697872 -76.62561895 343.88772285 -77.51953125 334.0546875 C-76.74223117 325.19346659 -73.53674068 318.51470787 -68.20703125 311.4921875 C-67.80097656 310.92113281 -67.39492187 310.35007812 -66.9765625 309.76171875 C-63.82800054 305.68312003 -59.95325194 302.46080114 -55.95703125 299.2421875 C-55.39698395 298.78532059 -54.83693665 298.32845367 -54.25991821 297.85774231 C-50.83066754 295.17938878 -47.63601577 293.13642507 -43.57861328 291.53735352 C-38.36229511 289.34741443 -33.77540227 286.99658867 -30.20703125 282.4921875 C-27.10778236 274.10292612 -28.03292471 264.63281457 -28.28377151 255.8269043 C-28.3659856 252.16895926 -28.34034088 248.51208057 -28.31811523 244.85351562 C-28.30987508 243.32064909 -28.30180544 241.78778163 -28.29389954 240.25491333 C-28.28776359 239.09423025 -28.28776359 239.09423025 -28.28150368 237.91009903 C-28.27333559 235.50515132 -28.27709706 233.10047526 -28.28385925 230.69552612 C-28.31907977 211.86032981 -27.35479386 193.07755873 -26.40795517 174.27072144 C-26.17818905 169.65870805 -25.96039762 165.0461313 -25.74145508 160.43359375 C-24.76699547 140.01013134 -23.71803192 119.59132145 -22.51953125 99.1796875 C-22.42866745 97.62713257 -22.42866745 97.62713257 -22.33596802 96.04321289 C-22.16764389 93.19654725 -21.99520593 90.35017513 -21.8203125 87.50390625 C-21.77255676 86.70812668 -21.72480103 85.91234711 -21.67559814 85.092453 C-21.34506054 79.86943027 -20.81660844 74.690195 -20.20703125 69.4921875 C-66.3627769 68.64442891 -116.33044769 73.95376674 -153.20703125 104.4921875 C-153.92890625 105.05164063 -154.65078125 105.61109375 -155.39453125 106.1875 C-168.31235407 116.6327708 -175.69036029 131.28014433 -178.20703125 147.4921875 C-180.09600496 167.13233881 -172.37835618 185.42408723 -160.20703125 200.4921875 C-142.70758245 221.62305787 -117.73152924 237.7062233 -90.20703125 241.4921875 C-80.94647797 242.33141303 -72.49200388 241.97064409 -63.60546875 239.11328125 C-59.65641702 238.09064407 -56.07784303 238.20191691 -52.20703125 239.4921875 C-49.58203125 241.5546875 -49.58203125 241.5546875 -48.20703125 244.4921875 C-48.01386364 248.54870729 -48.05263774 250.92062999 -50.4609375 254.19921875 C-56.97286305 260.39731657 -66.38115207 263.11325888 -75.20703125 263.4921875 C-76.55087891 263.56953125 -76.55087891 263.56953125 -77.921875 263.6484375 C-98.27234993 264.2643409 -118.20395681 258.71533349 -136.20703125 249.4921875 C-136.8201416 249.1832959 -137.43325195 248.8744043 -138.06494141 248.55615234 C-167.19053996 233.71885949 -191.80268191 207.8226259 -202.32788086 176.59155273 C-208.99180463 155.83765247 -208.19589381 133.09439147 -198.20703125 113.4921875 C-186.38925209 92.35607734 -169.44422396 78.52521741 -148.20703125 67.4921875 C-147.24168457 66.97809326 -147.24168457 66.97809326 -146.25683594 66.45361328 C-126.73692878 56.15116607 -104.98348328 50.50529277 -83.20703125 47.4921875 C-81.98266357 47.31486084 -80.7582959 47.13753418 -79.49682617 46.95483398 C-69.07058025 45.52952468 -58.78915087 45.21065886 -48.27416992 45.28637695 C-45.61562678 45.30488877 -42.95742975 45.30688393 -40.29882812 45.30664062 C-38.57942411 45.31154941 -36.8600224 45.31737491 -35.140625 45.32421875 C-33.97012856 45.32588799 -33.97012856 45.32588799 -32.77598572 45.32759094 C-27.84222965 45.36982133 -23.09279897 45.79729041 -18.20703125 46.4921875 C-18.16215576 45.88971191 -18.11728027 45.28723633 -18.07104492 44.66650391 C-17.27411857 34.2082102 -16.43312635 23.74640769 -14.89453125 13.3671875 C-14.80131592 12.64096191 -14.70810059 11.91473633 -14.61206055 11.16650391 C-13.17231605 2.2135245 -8.41832796 -0.38626606 0 0 Z M6.79296875 73.4921875 C5.90931448 88.04815233 5.03105591 102.60443532 4.1585331 117.16107178 C3.75291678 123.92621196 3.34568035 130.69124588 2.93457031 137.45605469 C1.30094021 164.35578839 -0.29496146 191.25340152 -1.42578125 218.1796875 C-1.48755617 219.62287354 -1.48755617 219.62287354 -1.55057907 221.09521484 C-2.2605672 237.89757648 -2.45231658 254.67693444 -2.20703125 271.4921875 C-0.76142822 271.00975586 -0.76142822 271.00975586 0.71337891 270.51757812 C12.04308109 266.74702296 23.40327767 263.07744116 34.79296875 259.4921875 C36.6632373 258.90195801 36.6632373 258.90195801 38.57128906 258.29980469 C58.97360883 252.00983187 79.90825888 248.62485778 100.94042969 245.16748047 C124.99286809 242.01485041 124.99286809 242.01485041 147.79296875 234.4921875 C154.5578564 204.3842616 146.99401609 170.3631359 130.79296875 144.4921875 C105.12914947 105.3076682 59.79505226 83.92688815 15.34375 73.8671875 C12.46559864 73.44405958 9.69857987 73.4682134 6.79296875 73.4921875 Z M242.79296875 244.4921875 C239.44431822 247.51947042 237.22448056 250.19765206 235.79296875 254.4921875 C249.91013052 253.52965374 263.38228666 244.23145677 274.79296875 236.4921875 C265.2931085 232.97820858 250.51825913 239.29780348 242.79296875 244.4921875 Z M117.79296875 263.3671875 C117.00075928 263.52046509 116.2085498 263.67374268 115.39233398 263.83166504 C96.92443447 267.44134185 78.85932336 272.2609149 60.79296875 277.4921875 C59.63677032 277.82473541 59.63677032 277.82473541 58.45721436 278.16400146 C37.43224818 284.21319571 16.98904501 291.05413463 -3.20703125 299.4921875 C-3.23181548 304.24275333 -3.24993114 308.99328121 -3.26196289 313.74389648 C-3.26698067 315.35881201 -3.27379636 316.97372302 -3.2824707 318.58862305 C-3.29464839 320.91456215 -3.3002852 323.240441 -3.3046875 325.56640625 C-3.30984879 326.28430832 -3.31501007 327.00221039 -3.32032776 327.74186707 C-3.32074123 331.46608649 -3.05043872 334.86740608 -2.20703125 338.4921875 C-1.74025996 342.84871952 -1.71337189 344.76712531 -4.20703125 348.4296875 C-7.36644765 350.60178627 -9.37945402 351.19097407 -13.21875 350.89453125 C-16.79241605 350.17137289 -18.56370578 349.01536182 -21.20703125 346.4921875 C-26.6950295 336.92429581 -27.30175982 325.26015287 -28.20703125 314.4921875 C-37.14863835 318.76860829 -45.17052618 326.03077615 -48.65234375 335.46484375 C-49.89164003 339.99438437 -49.75814755 342.43234847 -47.58203125 346.6171875 C-41.10845497 354.45362194 -31.90515858 356.33962633 -22.20703125 357.4921875 C22.79421447 360.06086453 69.25797371 342.20791922 102.79296875 312.4921875 C118.55357238 298.15988857 131.63282927 280.69720609 138.79296875 260.4921875 C131.69584714 260.23799742 124.72826022 262.02275153 117.79296875 263.3671875 Z " fill="#393185" transform="translate(1520.20703125,541.5078125)"/>
<path d="M0 0 C4.63180547 2.46563782 7.72374607 5.53733588 10.0625 10.21484375 C10.82633696 24.73724124 9.44948634 39.23124573 8.14599609 53.68286133 C7.81467759 57.37805712 7.50220814 61.07451311 7.19140625 64.77148438 C6.20690116 76.10757068 5.00881491 87.30944027 3.015625 98.515625 C-0.63667806 119.09753964 -1.3510626 139.92072467 -2.0625 160.77734375 C-2.10419312 161.96706787 -2.14588623 163.15679199 -2.18884277 164.38256836 C-4.82316423 220.59987763 -4.82316423 220.59987763 2.0625 276.21484375 C2.2186377 276.9308374 2.37477539 277.64683105 2.53564453 278.38452148 C3.21017308 282.53328775 3.21017308 282.53328775 5.9375 285.40234375 C6.63875 285.67046875 7.34 285.93859375 8.0625 286.21484375 C11.31870058 289.19969428 12.36347056 291.45556166 12.5625 295.77734375 C12.40204219 298.79094196 12.14455451 300.07808623 10.5625 302.71484375 C7.1010519 304.79171261 4.04125571 305.5030575 0.0625 305.21484375 C-8.54794143 302.83291751 -15.34793158 297.29066276 -19.73583984 289.57373047 C-33.73838504 262.08640994 -31.31935837 224.29326194 -30.9375 194.21484375 C-31.44877441 194.95669922 -31.96004883 195.69855469 -32.48681641 196.46289062 C-41.22282966 209.03303004 -51.30665768 220.37086821 -66.9375 223.21484375 C-80.4381322 224.42707764 -91.40300141 221.13874631 -101.9453125 212.5859375 C-108.24658185 206.70748059 -112.55450925 199.55160009 -113.17578125 190.89453125 C-113.39304854 179.75672371 -111.86389665 171.35099851 -103.9765625 163.02734375 C-95.09273444 155.1306077 -82.71423441 150.09751831 -70.8046875 150.08203125 C-69.83273437 150.08074219 -68.86078125 150.07945312 -67.859375 150.078125 C-66.35117188 150.08392578 -66.35117188 150.08392578 -64.8125 150.08984375 C-63.83023437 150.08597656 -62.84796875 150.08210937 -61.8359375 150.078125 C-55.15265137 150.0869188 -48.5815052 150.4987332 -41.9375 151.21484375 C-40.70472908 147.40350018 -39.47700951 143.59054565 -38.25 139.77734375 C-37.91033203 138.72740234 -37.57066406 137.67746094 -37.22070312 136.59570312 C-36.50281956 134.36154212 -35.79399363 132.12445668 -35.09277344 129.88500977 C-34.28974675 127.33388968 -33.46532923 124.79753561 -32.61816406 122.26147461 C-29.3807513 112.30069261 -27.97669624 102.75027746 -27.25067139 92.32260132 C-26.91644594 87.57975471 -26.51354665 82.84279397 -26.109375 78.10546875 C-26.02348114 77.09340866 -25.93758728 76.08134857 -25.84909058 75.03862 C-24.67288506 61.62156545 -22.98880416 48.26439085 -21.3125 34.90234375 C-21.16024963 33.66926483 -21.00799927 32.43618591 -20.85113525 31.16574097 C-20.4152597 27.64346763 -19.97105327 24.12236116 -19.5234375 20.6015625 C-19.3933429 19.55236633 -19.26324829 18.50317017 -19.12921143 17.42218018 C-17.40340612 4.12689521 -17.40340612 4.12689521 -14.5 0.33984375 C-10.09331418 -2.83297004 -4.76471735 -1.93086328 0 0 Z M-82.4921875 182.54296875 C-85.64200616 186.18654277 -87.00123234 189.55780293 -86.8125 194.46484375 C-85.88919451 197.36666102 -85.29652827 198.37404594 -82.9375 200.21484375 C-78.12923311 200.90715831 -73.85023104 199.53742657 -69.9375 196.77734375 C-62.65498786 190.70372863 -56.66535304 183.96719436 -52.9375 175.21484375 C-69.00322837 174.63959282 -69.00322837 174.63959282 -82.4921875 182.54296875 Z " fill="#393185" transform="translate(2098.9375,597.78515625)"/>
<path d="M0 0 C4.48066983 3.60881536 6.35274004 8.13970035 6.9609375 13.71484375 C6.76674918 24.31752584 -0.09875907 33.31661387 -6.4140625 41.27734375 C-5.56134766 41.31601563 -5.56134766 41.31601563 -4.69140625 41.35546875 C3.89587577 41.98625407 8.7341839 44.83778206 14.32421875 51.30078125 C18.67116035 58.11054116 18.65556998 66.49537993 17.5859375 74.27734375 C15.73590252 82.25962802 13.1104407 90.40227282 8.5859375 97.27734375 C30.10467502 105.20529968 53.65050266 106.12071061 75.5859375 99.27734375 C75.56144531 98.21515625 75.53695313 97.15296875 75.51171875 96.05859375 C75.65770564 88.62094587 78.35657682 81.65382199 83.5859375 76.27734375 C89.37921868 71.90120572 94.1865387 69.76704038 101.5859375 70.27734375 C105.1246369 71.9287368 106.39663903 72.99339604 108.5859375 76.27734375 C109.96451995 80.8372703 109.5247698 84.04283791 107.72265625 88.33203125 C105.69514752 91.80178846 102.7886238 93.93206953 99.5859375 96.27734375 C98.84859375 96.839375 98.11125 97.40140625 97.3515625 97.98046875 C95.44160399 99.42986989 93.52016518 100.86058478 91.5859375 102.27734375 C103.14708032 111.78317229 117.28081692 111.3547689 131.5859375 110.27734375 C151.443102 107.90258744 172.29544586 100.48207513 188.3984375 88.4921875 C191.5859375 86.27734375 191.5859375 86.27734375 194.4609375 86.40234375 C196.5859375 87.27734375 196.5859375 87.27734375 197.5859375 88.27734375 C197.86450195 90.65209961 197.86450195 90.65209961 197.5859375 93.27734375 C196.14135742 94.90454102 196.14135742 94.90454102 194.12890625 96.28125 C193.39462402 96.78543457 192.6603418 97.28961914 191.90380859 97.80908203 C165.13381082 114.76660959 129.61017278 125.72946199 97.75 120.140625 C90.74505795 118.22940007 83.64802004 115.55387263 79.5859375 109.27734375 C79.02648438 109.45910156 78.46703125 109.64085937 77.890625 109.828125 C75.13472737 110.6921122 72.36457304 111.48953137 69.5859375 112.27734375 C68.62816406 112.56351563 67.67039062 112.8496875 66.68359375 113.14453125 C46.70615882 118.33026838 25.60255581 115.43560862 5.85644531 110.61035156 C4.96924805 110.40506836 4.08205078 110.19978516 3.16796875 109.98828125 C2.36979736 109.79282715 1.57162598 109.59737305 0.74926758 109.39599609 C-1.46367873 109.07459384 -1.46367873 109.07459384 -3.28393555 110.3762207 C-4.36695793 111.38440651 -5.42027153 112.42485161 -6.453125 113.484375 C-18.51528377 124.51332097 -36.96293786 125.75616287 -52.4140625 125.27734375 C-55.76007173 125.02949121 -59.08554548 124.69810437 -62.4140625 124.27734375 C-63.01734375 125.169375 -63.620625 126.06140625 -64.2421875 126.98046875 C-65.04925359 128.16291441 -65.85655789 129.34519751 -66.6640625 130.52734375 C-67.25767578 131.40712891 -67.25767578 131.40712891 -67.86328125 132.3046875 C-70.12259889 135.60106898 -72.33020716 138.68741185 -75.4140625 141.27734375 C-78.6015625 141.58984375 -78.6015625 141.58984375 -81.4140625 141.27734375 C-82.4140625 140.27734375 -82.4140625 140.27734375 -82.72265625 137.6640625 C-82.33942033 133.4581696 -80.66339576 130.59251514 -78.4765625 127.08984375 C-75.56828642 122.37105105 -75.56828642 122.37105105 -73.4140625 117.27734375 C-73.9709375 117.05046875 -74.5278125 116.82359375 -75.1015625 116.58984375 C-81.05195473 113.21259411 -86.24718355 106.7779806 -88.4140625 100.27734375 C-88.94883168 94.30232653 -88.92686972 89.36485765 -85.4140625 84.27734375 C-80.70959436 79.57287561 -75.50463297 78.19096704 -68.9765625 78.08984375 C-64.73692065 78.18454365 -60.60836482 78.66726341 -56.4140625 79.27734375 C-56.24390625 78.68453613 -56.07375 78.09172852 -55.8984375 77.48095703 C-49.02777343 54.01380191 -39.67356762 29.91329711 -26.4140625 9.27734375 C-38.11813983 13.57477993 -47.66916574 18.76987363 -53.4140625 30.27734375 C-54.51828559 33.38854075 -55.49495197 36.48976492 -56.359375 39.67578125 C-57.57963879 42.68576527 -58.58250519 43.73285795 -61.4140625 45.27734375 C-64.9765625 45.27734375 -64.9765625 45.27734375 -68.4140625 44.27734375 C-70.4140625 42.08984375 -70.4140625 42.08984375 -71.4140625 39.27734375 C-70.53394998 28.64265085 -61.78483984 19.00358532 -53.9765625 12.33984375 C-40.68915431 2.05979274 -16.28166763 -9.65221224 0 0 Z M-12.4140625 7.27734375 C-19.74840404 20.93001568 -19.74840404 20.93001568 -25.4140625 35.27734375 C-25.0840625 36.26734375 -24.7540625 37.25734375 -24.4140625 38.27734375 C-12.49371843 27.40471432 -12.49371843 27.40471432 -6.1015625 13.33984375 C-6.09613241 10.20047824 -6.09613241 10.20047824 -8.2890625 8.40234375 C-10.3079213 7.12138118 -10.3079213 7.12138118 -12.4140625 7.27734375 Z M-35.58984375 64.6171875 C-37.6441286 67.61283628 -38.9356554 70.50932509 -40.2265625 73.90234375 C-40.66613281 75.02898437 -41.10570312 76.155625 -41.55859375 77.31640625 C-42.72279027 80.29636713 -42.72279027 80.29636713 -41.4140625 83.27734375 C-38.92331287 84.41664068 -38.92331287 84.41664068 -35.83984375 85.25 C-34.69708984 85.59224609 -33.55433594 85.93449219 -32.37695312 86.28710938 C-31.17232422 86.63451172 -29.96769531 86.98191406 -28.7265625 87.33984375 C-26.36838385 88.03870583 -24.01030757 88.73791343 -21.65234375 89.4375 C-20.0751355 89.89588257 -20.0751355 89.89588257 -18.46606445 90.36352539 C-16.38539618 90.98651086 -14.32088794 91.66553504 -12.27416992 92.39233398 C-9.27617267 93.47441308 -9.27617267 93.47441308 -5.4140625 93.27734375 C1.08338326 85.29513012 7.11329692 73.67543658 7.5859375 63.27734375 C6.89199479 58.88237328 5.95104611 56.25733809 2.5859375 53.40234375 C-9.67286071 44.71902835 -26.69770006 55.05454106 -35.58984375 64.6171875 Z M-75.4140625 93.27734375 C-74.23293498 98.75348044 -72.88742153 101.58682255 -68.4140625 105.27734375 C-67.7540625 105.27734375 -67.0940625 105.27734375 -66.4140625 105.27734375 C-65.74101232 103.67584489 -65.07584023 102.07103346 -64.4140625 100.46484375 C-64.0428125 99.57152344 -63.6715625 98.67820312 -63.2890625 97.7578125 C-62.24773013 95.24420045 -62.24773013 95.24420045 -62.4140625 92.27734375 C-63.82839456 92.05371005 -65.24573868 91.84907899 -66.6640625 91.65234375 C-67.45296875 91.53632812 -68.241875 91.4203125 -69.0546875 91.30078125 C-71.73558709 91.2741498 -73.14100339 91.91142291 -75.4140625 93.27734375 Z M-47.4140625 94.27734375 C-48.58813271 96.54461708 -49.75345989 98.81568999 -50.9140625 101.08984375 C-51.24792969 101.73244141 -51.58179688 102.37503906 -51.92578125 103.03710938 C-53.41645334 105.97282074 -54.4140625 107.93860892 -54.4140625 111.27734375 C-42.19107643 111.85556648 -28.80167538 111.73060271 -18.4140625 104.27734375 C-18.4140625 103.61734375 -18.4140625 102.95734375 -18.4140625 102.27734375 C-22.38290259 101.1363449 -26.35222914 99.99705644 -30.32202148 98.859375 C-31.6733946 98.47182857 -33.02463208 98.08380885 -34.37573242 97.6953125 C-36.31393574 97.13808793 -38.25266307 96.58268706 -40.19140625 96.02734375 C-41.35921631 95.6921875 -42.52702637 95.35703125 -43.73022461 95.01171875 C-46.11107004 94.23335599 -46.11107004 94.23335599 -47.4140625 94.27734375 Z " fill="#D7B56D" transform="translate(1091.4140625,1031.72265625)"/>
<path d="M0 0 C267.63 0 535.26 0 811 0 C811 3.63 811 7.26 811 11 C543.37 11 275.74 11 0 11 C0 7.37 0 3.74 0 0 Z " fill="#7E71B1" transform="translate(1454,1111)"/>
<path d="M0 0 C265.98 0 531.96 0 806 0 C806 3.63 806 7.26 806 11 C540.02 11 274.04 11 0 11 C0 7.37 0 3.74 0 0 Z " fill="#7E71B1" transform="translate(70,1111)"/>
<path d="M0 0 C4.28941263 2.27828664 7.2770115 4.97028911 10.0625 8.9375 C12.11207626 15.63278244 9.06706836 22.13482365 6.640625 28.39453125 C4.99160236 32.97199064 4.91373238 36.2729453 6 41 C7.54799142 42.54799142 8.96371984 42.28227181 11.125 42.375 C28.55267838 42.12709561 49.07054815 30.12188309 61.015625 17.9453125 C61.58796875 17.32398438 62.1603125 16.70265625 62.75 16.0625 C66.2533044 12.40576621 68.94448356 11.48147776 74 11 C77.61760409 12.13887536 79.35086948 13.01219269 81.4375 16.1875 C82.89149583 23.45747915 80.60783483 28.84274206 76.98828125 35.0625 C65.55277069 51.95739969 48.37379332 61.47922773 28.7734375 66.30859375 C15.61706814 68.71923286 4.58009546 66.77289478 -6.66796875 59.6875 C-10.17853063 57.14719392 -13.09664717 54.20028665 -16 51 C-16.66 50.34 -17.32 49.68 -18 49 C-18.70008179 49.49028687 -18.70008179 49.49028687 -19.41430664 49.99047852 C-36.70416773 62.01829992 -55.40726116 74.38752961 -77.5078125 70.56640625 C-85.31031434 68.37789964 -91.85967502 63.50764058 -95.9375 56.5 C-100.45523441 47.29316884 -101.22409611 39.13469657 -98.03515625 29.44921875 C-93.44307213 18.58417444 -83.91095378 11.77027499 -73.37890625 7.2890625 C-55.71594406 0.55059138 -35.13148943 1.04700777 -17 6 C-16.4225 5.21625 -15.845 4.4325 -15.25 3.625 C-10.75259136 -1.62197675 -6.42907459 -1.80224878 0 0 Z M-71.0703125 37.83984375 C-74.34595777 41.36548791 -74.34595777 41.36548791 -75 46 C-61.71728677 43.56483591 -46.25838973 37.34567394 -37 27 C-48.80549642 27 -62.06286572 29.83511274 -71.0703125 37.83984375 Z " fill="#393185" transform="translate(1130,750)"/>
<path d="M0 0 C4.20859385 2.38343835 7.31576777 4.97365166 10 9 C10.80183163 15.8728425 9.04330078 21.14997204 6.72192383 27.52880859 C4.95797171 32.57618849 4.56670972 35.88110613 6 41 C7.54799142 42.54799142 8.96371984 42.28227181 11.125 42.375 C31.58488413 42.08396324 50.60361059 27.50854824 65 14.375 C68.23331528 11.81529207 69.90107469 11 74 11 C77.84624466 12.04897582 78.73691641 12.60537461 81 16 C82.5348557 23.91876876 80.32123713 29.54141678 76.0390625 36.15234375 C64.37659311 52.43958548 46.74404756 62.66339213 27.15625 66.56640625 C14.31096799 68.33104276 2.7307189 66.53842618 -8 59 C-15.15151515 52.6969697 -15.15151515 52.6969697 -17 49 C-20.22512674 50.44850606 -23.02896073 52.35885182 -25.92285156 54.37670898 C-40.9872735 64.82643526 -57.16562654 72.92499984 -76 71 C-83.22297699 69.32626188 -89.19429705 65.6493708 -94 60 C-99.05461258 51.83969262 -100.88921405 44.56540259 -100 35 C-97.40940325 24.3723109 -90.12826179 16.65695097 -81 11 C-69.57439704 4.79349963 -58.118469 2.46285619 -45.1875 2.625 C-44.05908691 2.63080078 -42.93067383 2.63660156 -41.76806641 2.64257812 C-33.20922503 2.77514013 -25.25311537 3.71200762 -17 6 C-15.8553125 4.5459375 -15.8553125 4.5459375 -14.6875 3.0625 C-10.73723478 -1.95540447 -5.78116835 -1.53853674 0 0 Z M-69 36 C-72.34865053 39.02728292 -74.56848819 41.70546456 -76 46 C-61.88283823 45.03746624 -48.41068209 35.73926927 -37 28 C-46.49986025 24.48602108 -61.27470962 30.80561598 -69 36 Z " fill="#393185" transform="translate(2208,750)"/>
<path d="M0 0 C8 0 8 0 10.18994141 1.70898438 C10.73827637 2.49595703 11.28661133 3.28292969 11.8515625 4.09375 C12.47546875 4.96 13.099375 5.82625 13.7421875 6.71875 C14.67417969 8.09546875 14.67417969 8.09546875 15.625 9.5 C16.2540625 10.386875 16.883125 11.27375 17.53125 12.1875 C18.77322033 13.93965731 20.00556935 15.69867967 21.22753906 17.46484375 C23.72990676 21.04398785 26.3517929 24.52798809 29 28 C32.83548782 24.36925352 35.87698161 20.58652521 38.875 16.25 C39.75458833 15.01257989 40.6347983 13.77560142 41.515625 12.5390625 C43.02317996 10.40812556 44.48408723 8.26599782 45.921875 6.0859375 C46.48390625 5.27382812 47.0459375 4.46171875 47.625 3.625 C48.09164062 2.91601562 48.55828125 2.20703125 49.0390625 1.4765625 C51 0 51 0 59 0 C59 21.78 59 43.56 59 66 C56.36 66 53.72 66 51 66 C50.67 49.83 50.34 33.66 50 17 C41.64416093 27.85616232 41.64416093 27.85616232 33.88671875 39.05078125 C32 41 32 41 29.5703125 41.65625 C25.81469257 40.69736832 24.31029104 38.2225082 22.1875 35.1875 C21.60645508 34.39569336 21.60645508 34.39569336 21.01367188 33.58789062 C19.66030024 31.73647823 18.33120669 29.86741302 17 28 C14.36 24.37 11.72 20.74 9 17 C8.67 33.17 8.34 49.34 8 66 C5.36 66 2.72 66 0 66 C0 44.22 0 22.44 0 0 Z " fill="#2B2A29" transform="translate(321,1256)"/>
<path d="M0 0 C8 0 8 0 10.09814453 1.6171875 C10.60458496 2.36226562 11.11102539 3.10734375 11.6328125 3.875 C12.21160156 4.69613281 12.79039063 5.51726562 13.38671875 6.36328125 C14.24716797 7.66845703 14.24716797 7.66845703 15.125 9 C16.29413299 10.68759551 17.46340256 12.3750964 18.6328125 14.0625 C19.19000977 14.88878906 19.74720703 15.71507812 20.32128906 16.56640625 C22.41459635 19.60103206 24.65037738 22.50930423 26.92919922 25.40625 C28 27 28 27 28 29 C31.79098236 25.41102381 34.84781026 21.61348787 37.8125 17.3125 C38.6900307 16.07584567 39.568951 14.8401763 40.44921875 13.60546875 C42.03651866 11.37138121 43.5975155 9.12603835 45.14453125 6.86328125 C45.79808594 5.95964844 46.45164062 5.05601563 47.125 4.125 C47.68445312 3.32320312 48.24390625 2.52140625 48.8203125 1.6953125 C51 0 51 0 59 0 C59 21.78 59 43.56 59 66 C56.36 66 53.72 66 51 66 C50.67 49.5 50.34 33 50 16 C40.97816708 28.48431858 40.97816708 28.48431858 32 41 C29.41796875 41.6953125 29.41796875 41.6953125 27 41 C19.96933558 34.68259139 14.19446152 24.27224613 9 17 C8.67 33.17 8.34 49.34 8 66 C5.36 66 2.72 66 0 66 C0 44.22 0 22.44 0 0 Z " fill="#2B2A29" transform="translate(1208,1256)"/>
<path d="M0 0 C2.64 0 5.28 0 8 0 C8 24.42 8 48.84 8 74 C5.36 74 2.72 74 0 74 C0 73.34 0 72.68 0 72 C-0.7425 72.495 -1.485 72.99 -2.25 73.5 C-7.74897355 76.22342529 -14.63246719 76.01352929 -20.4140625 74.2734375 C-26.57989611 71.4329973 -29.74820963 67.25462591 -32.3605957 61.01342773 C-33.49686093 57.43542875 -33.48805966 53.91469478 -33.4375 50.1875 C-33.42847656 49.39504883 -33.41945313 48.60259766 -33.41015625 47.78613281 C-33.19898774 40.62693366 -32.3924283 34.31051857 -27.05859375 29.10546875 C-22.41040167 25.45026061 -18.7141999 23.84995866 -12.75 23.75 C-11.83734375 23.72421875 -10.9246875 23.6984375 -9.984375 23.671875 C-7 24 -7 24 0 27 C0 18.09 0 9.18 0 0 Z M-22 36 C-25.91991599 42.14120171 -25.78876648 48.89233762 -25 56 C-23.77696181 60.22802987 -22.05214291 63.03804077 -18.8125 66 C-14.84310563 67.41134022 -11.14802162 67.83091285 -7 67 C-4.57066819 65.78918407 -2.31763743 64.42385268 0 63 C0.14513802 58.75035873 0.23402037 54.50135365 0.3125 50.25 C0.35439453 49.0434375 0.39628906 47.836875 0.43945312 46.59375 C0.45556641 45.43359375 0.47167969 44.2734375 0.48828125 43.078125 C0.51446533 42.00981445 0.54064941 40.94150391 0.56762695 39.84082031 C0.23566721 36.80093318 0.23566721 36.80093318 -2.34301758 34.68261719 C-9.14102035 30.37756939 -16.05781149 30.61057321 -22 36 Z " fill="#2B2A29" transform="translate(498,1248)"/>
<path d="M0 0 C6.12076477 4.32932142 10.1294323 9.35547516 11.5625 16.8125 C12.27475241 27.49628618 12.288326 36.09176326 5.1875 44.6875 C-0.66041709 49.42152812 -5.05630178 50.15327189 -12.4375 50.2109375 C-15.4375 49.8125 -15.4375 49.8125 -21.4375 46.8125 C-21.7675 53.7425 -22.0975 60.6725 -22.4375 67.8125 C-25.0775 67.8125 -27.7175 67.8125 -30.4375 67.8125 C-30.4375 45.3725 -30.4375 22.9325 -30.4375 -0.1875 C-27.7975 -0.1875 -25.1575 -0.1875 -22.4375 -0.1875 C-22.1075 0.4725 -21.7775 1.1325 -21.4375 1.8125 C-20.695 1.3175 -19.9525 0.8225 -19.1875 0.3125 C-13.35145222 -2.60552389 -6.00637783 -2.07493052 0 0 Z M-22.4375 11.8125 C-23.64426361 15.99719548 -23.55622435 19.9840081 -23.4375 24.3125 C-23.4684375 25.44042969 -23.499375 26.56835938 -23.53125 27.73046875 C-23.58439515 33.6980792 -23.58439515 33.6980792 -20.74853516 38.68725586 C-15.88258403 41.8884795 -11.18384814 42.92984547 -5.4375 41.8125 C-1.42408129 40.02875835 0.68038698 38.21163907 2.4375 34.25 C4.64499353 27.19390461 4.61186347 19.27738431 1.59375 12.47265625 C-0.29311995 9.43508152 -2.19853391 8.25204048 -5.4375 6.8125 C-11.8596048 5.5637574 -17.9586623 6.8409772 -22.4375 11.8125 Z " fill="#2B2A29" transform="translate(1793.4375,1273.1875)"/>
<path d="M0 0 C0 2.97 0 5.94 0 9 C-0.59425781 8.79503906 -1.18851563 8.59007812 -1.80078125 8.37890625 C-9.13931684 5.99359686 -17.50037481 3.36372607 -25.0625 6.125 C-28.05772074 7.75922056 -28.05772074 7.75922056 -29.5 10.25 C-30.14608835 13.80348594 -29.84395738 16.49433088 -29 20 C-26.76684669 22.8671716 -24.39413497 23.78803278 -21 24.9375 C-20.02804687 25.2778125 -19.05609375 25.618125 -18.0546875 25.96875 C-16.04320655 26.64781774 -14.02760624 27.314822 -12.0078125 27.96875 C-5.02702961 30.31459574 -1.16084479 32.75873282 3 39 C4.53432957 45.49494399 4.36050189 51.16470989 1 57 C-2.33363852 61.16704816 -5.95561843 63.40515891 -11 65 C-13.81217892 65.30906125 -16.32511491 65.47614131 -19.125 65.4375 C-19.858396 65.43427734 -20.59179199 65.43105469 -21.34741211 65.42773438 C-28.36236466 65.25116185 -34.4547354 63.54980743 -41 61 C-41 58.03 -41 55.06 -41 52 C-38.78645833 52.74869792 -36.57291667 53.49739583 -34.359375 54.24609375 C-33.58078125 54.49488281 -32.8021875 54.74367188 -32 55 C-31.40703125 55.19335938 -30.8140625 55.38671875 -30.203125 55.5859375 C-26.81672415 56.22238872 -23.43284292 56.18439054 -20 56.1875 C-19.2884375 56.19974609 -18.576875 56.21199219 -17.84375 56.22460938 C-14.08116767 56.23513899 -11.14769329 56.18156961 -8 54 C-5.45925447 50.56999354 -5.55631262 47.14108223 -6 43 C-8.66718917 39.72857346 -11.09121677 38.31011406 -15.0625 37 C-16.02671875 36.66613281 -16.9909375 36.33226562 -17.984375 35.98828125 C-19.9668535 35.33858299 -21.95649149 34.71026911 -23.953125 34.10546875 C-30.3258407 32.05958325 -34.45732451 29.8278364 -38 24 C-39.95946946 18.12159161 -39.79330377 11.42398374 -37.875 5.5625 C-29.38326731 -6.042868 -12.25848255 -5.44821447 0 0 Z " fill="#2B2A29" transform="translate(1749,1258)"/>
<path d="M0 0 C2.64 0 5.28 0 8 0 C8 9.24 8 18.48 8 28 C10.97 26.68 13.94 25.36 17 24 C23.25638194 23.40818009 27.4205003 23.82734331 33 27 C37.54901321 31.4260669 39.05827571 36.75134482 39.22705078 43.00756836 C39.22673922 44.45169887 39.2157465 45.89585778 39.1953125 47.33984375 C39.1924826 48.10680069 39.18965271 48.87375763 39.18673706 49.66395569 C39.17563475 52.08863621 39.15054967 54.51293309 39.125 56.9375 C39.1149573 58.5917915 39.10583372 60.24608885 39.09765625 61.90039062 C39.07572817 65.93373923 39.04126843 69.9668048 39 74 C36.36 74 33.72 74 31 74 C30.98541748 73.03698975 30.97083496 72.07397949 30.95581055 71.08178711 C30.89750077 67.48262832 30.82027261 63.88407395 30.73754883 60.28540039 C30.70445223 58.73276638 30.67637349 57.18001647 30.65356445 55.62719727 C30.61973476 53.3850806 30.56741013 51.14401153 30.51171875 48.90234375 C30.50532883 48.21663803 30.4989389 47.53093231 30.49235535 46.82444763 C30.34286611 41.83882377 29.15092004 38.40450332 27 34 C20.87660957 32.69594463 17.01845143 32.87841843 11.53125 35.9921875 C10.01915254 36.9135448 10.01915254 36.9135448 9 38 C8.83996512 40.66426685 8.74057111 43.30560428 8.68359375 45.97265625 C8.66281265 46.77029892 8.64203156 47.56794159 8.62062073 48.38975525 C8.55503842 50.94724611 8.49620033 53.5048428 8.4375 56.0625 C8.39432301 57.79232882 8.35070899 59.52214679 8.30664062 61.25195312 C8.19934828 65.5011926 8.09810574 69.7505389 8 74 C5.36 74 2.72 74 0 74 C0 49.58 0 25.16 0 0 Z " fill="#2B2A29" transform="translate(1019,1248)"/>
<path d="M0 0 C4.29260816 3.57717346 6.35771741 8.08711965 7.6875 13.40625 C7.6875 16.70625 7.6875 20.00625 7.6875 23.40625 C-3.2025 23.40625 -14.0925 23.40625 -25.3125 23.40625 C-24.05461269 30.66340932 -24.05461269 30.66340932 -21.3125 37.40625 C-14.60389038 40.92827005 -6.70173505 40.00257237 0.3125 37.90625 C1.77550295 37.42008287 3.2357877 36.92515993 4.6875 36.40625 C6.75178571 40.77767857 6.75178571 40.77767857 6.4765625 43.46875 C5.6875 45.40625 5.6875 45.40625 4.11328125 46.453125 C-3.96803938 49.14191929 -13.81929832 50.40310276 -21.8125 46.84375 C-27.41617153 43.45268697 -31.26420306 38.59645712 -33.3125 32.40625 C-34.88897493 22.5914222 -34.84215798 14.2316646 -29.6875 5.59375 C-22.8399023 -3.82169684 -10.13364828 -5.91129483 0 0 Z M-22.3125 9.40625 C-24.5898501 12.22134993 -24.5898501 12.22134993 -24.3125 15.40625 C-16.7225 15.40625 -9.1325 15.40625 -1.3125 15.40625 C-1.74455391 9.67126393 -1.74455391 9.67126393 -4.3125 7.03125 C-10.86139056 3.48393428 -16.69695724 4.61249399 -22.3125 9.40625 Z " fill="#2B2A29" transform="translate(702.3125,1274.59375)"/>
<path d="M0 0 C2.64 0 5.28 0 8 0 C8.33 13.86 8.66 27.72 9 42 C14.13220202 36.43503574 14.13220202 36.43503574 19.19848633 30.81054688 C24.53024405 25.25779372 24.53024405 25.25779372 29.02880859 24.46875 C31.74109185 24.46875 34.31715376 24.61516421 37 25 C34.11889983 28.52134466 31.18825928 31.8565276 27.89453125 34.99609375 C27.34764648 35.52170898 26.80076172 36.04732422 26.23730469 36.58886719 C25.12712602 37.64855376 24.00669253 38.69760703 22.87597656 39.73535156 C21.11303234 41.37070048 21.11303234 41.37070048 19 44 C19.29676948 47.36197423 20.79702572 49.28064017 22.94921875 51.79296875 C23.55056641 52.50646484 24.15191406 53.21996094 24.77148438 53.95507812 C25.40376953 54.69177734 26.03605469 55.42847656 26.6875 56.1875 C31.55903303 61.88888408 35.97179488 67.66836599 40 74 C35.9693367 74.79281549 33.01881645 75.14397003 29 74 C24.95776789 70.6533468 22.0916989 66.07396078 19.18652344 61.75292969 C17.64630959 59.47746973 15.9870885 57.30275125 14.3125 55.125 C13.549375 54.09375 12.78625 53.0625 12 52 C8.83096637 53.60672068 8.83096637 53.60672068 8.56762695 56.06298828 C8.54144287 56.89040527 8.51525879 57.71782227 8.48828125 58.5703125 C8.45283203 59.46621094 8.41738281 60.36210938 8.38085938 61.28515625 C8.34702148 62.69087891 8.34702148 62.69087891 8.3125 64.125 C8.27833984 65.06988281 8.24417969 66.01476563 8.20898438 66.98828125 C8.12635888 69.32540253 8.05726012 71.66214191 8 74 C5.36 74 2.72 74 0 74 C0 49.58 0 25.16 0 0 Z " fill="#2B2A29" transform="translate(1905,1248)"/>
<path d="M0 0 C5.88389223 3.14571727 8.38825528 7.23626319 10.8046875 13.27734375 C10.8046875 17.23734375 10.8046875 21.19734375 10.8046875 25.27734375 C-0.0853125 25.27734375 -10.9753125 25.27734375 -22.1953125 25.27734375 C-19.8831935 34.52370007 -19.8831935 34.52370007 -14.1953125 40.27734375 C-9.62890263 42.56054868 -3.29751976 41.79536617 1.53125 40.60546875 C3.64526641 39.89408545 5.72905987 39.09398413 7.8046875 38.27734375 C8.7946875 40.91734375 9.7846875 43.55734375 10.8046875 46.27734375 C2.21730498 50.80339948 -7.27868431 52.15411177 -16.7578125 49.58203125 C-22.68570732 46.90998775 -26.00785993 42.52940897 -29.0078125 36.83984375 C-31.90507104 28.16471903 -31.40721295 17.62766173 -27.53125 9.3671875 C-21.57099691 0.04339977 -10.52933135 -3.46606103 0 0 Z M-18.1953125 10.27734375 C-20.55631773 13.48810853 -20.55631773 13.48810853 -21.1953125 17.27734375 C-13.2753125 17.27734375 -5.3553125 17.27734375 2.8046875 17.27734375 C0.83689569 10.78575652 0.83689569 10.78575652 -4.1953125 7.27734375 C-9.48730093 6.42255796 -13.99370686 6.69362129 -18.1953125 10.27734375 Z " fill="#2B2A29" transform="translate(1843.1953125,1272.72265625)"/>
<path d="M0 0 C5.3626455 3.12904831 8.6031591 7.15322731 10.58203125 13.08984375 C10.58203125 17.04984375 10.58203125 21.00984375 10.58203125 25.08984375 C-0.30796875 25.08984375 -11.19796875 25.08984375 -22.41796875 25.08984375 C-20.24103232 33.82498457 -20.24103232 33.82498457 -15.41796875 40.08984375 C-7.53066877 42.71894374 0.06304028 41.04813528 7.58203125 38.08984375 C8.57203125 40.72984375 9.56203125 43.36984375 10.58203125 46.08984375 C1.99464873 50.61589948 -7.50134056 51.96661177 -16.98046875 49.39453125 C-22.90836357 46.72248775 -26.23051618 42.34190897 -29.23046875 36.65234375 C-32.12772729 27.97721903 -31.6298692 17.44016173 -27.75390625 9.1796875 C-21.80189733 -0.13120364 -10.45748773 -3.93634029 0 0 Z M-19.41796875 11.08984375 C-20.07796875 13.06984375 -20.73796875 15.04984375 -21.41796875 17.08984375 C-13.49796875 17.08984375 -5.57796875 17.08984375 2.58203125 17.08984375 C0.61423944 10.59825652 0.61423944 10.59825652 -4.41796875 7.08984375 C-10.42159568 6.00431711 -14.83965356 6.84652724 -19.41796875 11.08984375 Z " fill="#2B2A29" transform="translate(1978.41796875,1272.91015625)"/>
<path d="M0 0 C6.19752951 3.77866251 9.49314401 8.20870348 11.5 15.1875 C13.24064739 23.42725098 13.12799958 33.05167474 8.5625 40.4375 C3.8973588 45.55802375 -0.67839069 49.05125938 -7.70703125 49.7734375 C-21.03791024 49.92041522 -21.03791024 49.92041522 -26.4375 45.4375 C-32.59474575 39.073172 -34.49505646 32.84275552 -34.75 24.0625 C-34.61447955 16.68510539 -33.29168431 11.32784613 -29.3125 5.125 C-21.49261162 -2.18489566 -10.00851653 -4.42905617 0 0 Z M-22.625 11.8125 C-26.33785315 17.18973559 -27.31999825 21.98019574 -26.4375 28.4375 C-24.8036703 33.22108385 -22.40801271 37.23547362 -18.4375 40.4375 C-13.08434273 42.22188576 -8.25768305 42.29607691 -3.125 39.875 C1.16318581 35.9857152 3.20407098 33.06374625 3.98046875 27.375 C4.2534769 20.99989081 3.89287209 16.13693278 -0.02734375 10.9609375 C-3.3938307 7.32401254 -6.06167812 6.27238637 -10.9375 6.0625 C-16.27366374 6.26603527 -19.01014244 7.88779751 -22.625 11.8125 Z " fill="#2B2A29" transform="translate(1313.4375,1273.5625)"/>
<path d="M0 0 C0.80791992 -0.01023193 1.61583984 -0.02046387 2.44824219 -0.03100586 C7.78238606 0.04737295 11.54785103 1.03285119 16.3125 3.4375 C16.3125 6.0775 16.3125 8.7175 16.3125 11.4375 C13.9744429 10.98497282 11.65724896 10.53422315 9.36328125 9.890625 C2.36256941 8.03047176 -4.48717944 7.58422879 -11.24609375 10.56640625 C-17.38818991 14.26780081 -20.14896852 18.53931816 -22.26171875 25.265625 C-24.02889103 34.2798249 -23.34649725 43.45498354 -18.6875 51.4375 C-14.84267157 56.19294569 -10.55645136 59.05611844 -4.42578125 59.87109375 C2.79257794 59.87932449 8.48162399 59.16429187 15.10546875 56.21484375 C17.3125 55.4375 17.3125 55.4375 20.3125 56.4375 C21.5 60 21.5 60 22.3125 63.4375 C20.75229133 64.08884925 19.18921421 64.73332964 17.625 65.375 C16.31982422 65.91447266 16.31982422 65.91447266 14.98828125 66.46484375 C6.05793931 69.71105564 -6.86493977 70.18735307 -15.734375 66.53125 C-24.23025598 61.77355665 -28.69413339 55.05547715 -31.46875 45.84375 C-34.12014979 33.98222462 -32.73982239 22.01727394 -26.6875 11.4375 C-20.01370095 2.04663264 -10.94342552 0.10809099 0 0 Z " fill="#2B2A29" transform="translate(848.6875,1254.5625)"/>
<path d="M0 0 C6.39633643 3.78558686 9.85495556 6.73243793 12.3671875 13.8046875 C14.36011086 22.42576046 14.19072015 31.64052194 10.3984375 39.72265625 C7.13836109 44.82248339 2.79612905 47.97309877 -2.9375 49.8125 C-10.78971487 50.61929866 -18.51903491 50.90249208 -24.9375 45.8125 C-30.29330088 40.85298035 -32.61692128 36.227507 -33.30859375 28.859375 C-33.57841058 19.3697197 -33.15044585 11.54401114 -26.4453125 4.171875 C-19.47198761 -2.11495676 -8.71532549 -3.43153755 0 0 Z M-22.26171875 12.47265625 C-25.47597114 17.96508051 -25.82483639 23.59209079 -24.9375 29.8125 C-23.60944201 34.28163898 -21.68111269 37.10429744 -18.3125 40.3125 C-13.7308928 42.34876987 -9.87438188 42.60721757 -4.9375 41.8125 C-0.45714556 39.61305327 1.92562614 37.31118182 4.0625 32.8125 C5.75311183 27.10225164 5.66781188 21.7240112 3.875 16.0625 C1.39051962 11.60756966 -1.0208572 8.45138093 -5.9375 6.8125 C-12.67363442 6.25115546 -17.84535082 6.93591179 -22.26171875 12.47265625 Z " fill="#2B2A29" transform="translate(1551.9375,1273.1875)"/>
<path d="M0 0 C5.20967386 4.23168455 8.21350308 10.17544405 9.1640625 16.7578125 C9.93344106 26.5230019 8.47689416 35.00204789 2.1640625 42.7578125 C-5.07514615 48.33803583 -11.89124834 48.50766668 -20.8359375 47.7578125 C-26.99843116 46.105189 -31.53231384 42.15064364 -34.8359375 36.7578125 C-38.709418 27.92920035 -38.96413191 19.29825059 -35.94140625 10.1875 C-33.4510434 4.71398165 -29.73100046 0.97065279 -24.7109375 -2.2421875 C-16.59348553 -5.0148902 -7.39967533 -4.21805597 0 0 Z M-26.4140625 10.578125 C-29.47336753 15.26793875 -30.16750663 21.02815036 -29.5 26.5234375 C-27.99093168 32.45318831 -25.92432644 35.40164107 -20.8359375 38.7578125 C-17.35957591 40.4959933 -13.6368965 40.21290203 -9.8359375 39.7578125 C-4.99755411 37.38426593 -2.24192478 34.56978705 0.1640625 29.7578125 C1.82254346 23.08981028 1.52215666 16.83836156 -1.8359375 10.7578125 C-4.52408156 7.76224771 -7.69097687 5.0194977 -11.7890625 4.51953125 C-18.18767538 4.31277335 -22.06148979 5.55758321 -26.4140625 10.578125 Z " fill="#2B2A29" transform="translate(912.8359375,1275.2421875)"/>
<path d="M0 0 C14.91433544 -0.81846963 14.91433544 -0.81846963 21 4 C25.32073625 9.43576497 25.14428438 15.46124206 25.09765625 22.14453125 C25.0962413 22.91431808 25.09482635 23.68410492 25.09336853 24.47721863 C25.08779606 26.92235288 25.07524871 29.36739368 25.0625 31.8125 C25.05748144 33.47591013 25.05291915 35.1393217 25.04882812 36.80273438 C25.03783566 40.86852528 25.0205901 44.93424683 25 49 C22.36 49 19.72 49 17 49 C16.67 48.34 16.34 47.68 16 47 C15.01 47.495 14.02 47.99 13 48.5 C8.20086235 50.51814843 3.80847815 50.90546563 -1.14453125 49.30859375 C-5.94297457 47.1808981 -8.70805201 44.85892974 -11 40 C-12.73343096 33.62001106 -12.12142916 27.84558551 -9 22 C-5.5722838 17.74383275 -1.32199456 15.85838622 4 15 C8.02661029 15.14146184 12.00134274 15.51412046 16 16 C15.67 14.02 15.34 12.04 15 10 C7.575 9.01 7.575 9.01 0 8 C0 5.36 0 2.72 0 0 Z M-1 26 C-3.45893906 29.6884086 -3.6821084 32.71739539 -3 37 C-0.92040248 40.24417214 0.57297456 40.86860756 4.25 42 C9.01066483 42 12.02682116 40.50019546 16 38 C17.31262571 36.91447634 17.31262571 36.91447634 17.09765625 34.27734375 C17.08605469 33.17519531 17.07445312 32.07304688 17.0625 30.9375 C17.05347656 29.83277344 17.04445313 28.72804688 17.03515625 27.58984375 C17.02355469 26.73519531 17.01195312 25.88054687 17 25 C9.8110125 22.78800385 5.8202269 22.58988655 -1 26 Z " fill="#2B2A29" transform="translate(1633,1273)"/>
<path d="M0 0 C13.07501187 -0.57968033 13.07501187 -0.57968033 19 3 C23.98778912 8.25030434 24.14167376 12.6486831 24.09765625 19.60546875 C24.0962413 20.44467361 24.09482635 21.28387848 24.09336853 22.14851379 C24.08777215 24.82821216 24.07522035 27.5078269 24.0625 30.1875 C24.05748453 32.00455608 24.05292171 33.82161348 24.04882812 35.63867188 C24.03780391 40.09248013 24.02054178 44.54622589 24 49 C21.36 49 18.72 49 16 49 C16 48.34 16 47.68 16 47 C15.030625 47.495 14.06125 47.99 13.0625 48.5 C7.54173078 50.8468857 2.38691067 50.82623831 -3.25 48.875 C-7.4296989 46.0252053 -10.36864324 42.89407029 -12 38 C-12.72977348 31.2645497 -12.24883474 25.47543287 -8 20 C-2.52723895 15.64412896 3.08830193 14.94902878 10 15 C11.67502668 15.28839991 13.34594069 15.60887767 15 16 C14.72965366 13.56282742 14.72965366 13.56282742 14 11 C10.71508627 8.81005752 9.16904361 8.64722661 5.3125 8.375 C4.31863281 8.30023437 3.32476563 8.22546875 2.30078125 8.1484375 C1.54152344 8.09945313 0.78226563 8.05046875 0 8 C0 5.36 0 2.72 0 0 Z M-2 26 C-4.24045838 28.52051568 -4.12383894 30.76010684 -3.9375 34 C-3.43133509 37.07725258 -2.97654757 38.02913786 -0.9375 40.5625 C2.98748671 42.48323818 5.93577014 42.18044883 10 41 C13.64847326 39.92885209 13.64847326 39.92885209 16 37 C16.5064407 32.95386204 16.34432686 29.05540522 16 25 C8.85932983 22.80287072 4.75357422 22.4981467 -2 26 Z " fill="#2B2A29" transform="translate(1870,1273)"/>
<path d="M0 0 C13.07501187 -0.57968033 13.07501187 -0.57968033 19 3 C23.98778912 8.25030434 24.14167376 12.6486831 24.09765625 19.60546875 C24.0962413 20.44467361 24.09482635 21.28387848 24.09336853 22.14851379 C24.08777215 24.82821216 24.07522035 27.5078269 24.0625 30.1875 C24.05748453 32.00455608 24.05292171 33.82161348 24.04882812 35.63867188 C24.03780391 40.09248013 24.02054178 44.54622589 24 49 C21.36 49 18.72 49 16 49 C16 48.34 16 47.68 16 47 C15.030625 47.495 14.06125 47.99 13.0625 48.5 C7.54173078 50.8468857 2.38691067 50.82623831 -3.25 48.875 C-7.4296989 46.0252053 -10.36864324 42.89407029 -12 38 C-12.72977348 31.2645497 -12.24883474 25.47543287 -8 20 C-2.52723895 15.64412896 3.08830193 14.94902878 10 15 C11.67502668 15.28839991 13.34594069 15.60887767 15 16 C14.72965366 13.56282742 14.72965366 13.56282742 14 11 C10.71508627 8.81005752 9.16904361 8.64722661 5.3125 8.375 C4.31863281 8.30023437 3.32476563 8.22546875 2.30078125 8.1484375 C1.54152344 8.09945313 0.78226563 8.05046875 0 8 C0 5.36 0 2.72 0 0 Z M-2 26 C-4.24045838 28.52051568 -4.12383894 30.76010684 -3.9375 34 C-3.43133509 37.07725258 -2.97654757 38.02913786 -0.9375 40.5625 C2.98748671 42.48323818 5.93577014 42.18044883 10 41 C13.64847326 39.92885209 13.64847326 39.92885209 16 37 C16.5064407 32.95386204 16.34432686 29.05540522 16 25 C8.85932983 22.80287072 4.75357422 22.4981467 -2 26 Z " fill="#2B2A29" transform="translate(1437,1273)"/>
<path d="M0 0 C13.07501187 -0.57968033 13.07501187 -0.57968033 19 3 C23.98778912 8.25030434 24.14167376 12.6486831 24.09765625 19.60546875 C24.0962413 20.44467361 24.09482635 21.28387848 24.09336853 22.14851379 C24.08777215 24.82821216 24.07522035 27.5078269 24.0625 30.1875 C24.05748453 32.00455608 24.05292171 33.82161348 24.04882812 35.63867188 C24.03780391 40.09248013 24.02054178 44.54622589 24 49 C21.36 49 18.72 49 16 49 C16 48.34 16 47.68 16 47 C15.030625 47.495 14.06125 47.99 13.0625 48.5 C7.54173078 50.8468857 2.38691067 50.82623831 -3.25 48.875 C-7.4296989 46.0252053 -10.36864324 42.89407029 -12 38 C-12.75276452 31.34341092 -12.51479925 26.09571541 -8.47265625 20.58984375 C-4.28535612 16.06933671 0.73275422 15.50170625 6.5859375 15.05078125 C9.49331549 14.98962281 12.1722754 15.33027575 15 16 C14.72965366 13.56282742 14.72965366 13.56282742 14 11 C10.71508627 8.81005752 9.16904361 8.64722661 5.3125 8.375 C4.31863281 8.30023437 3.32476563 8.22546875 2.30078125 8.1484375 C1.54152344 8.09945313 0.78226563 8.05046875 0 8 C0 5.36 0 2.72 0 0 Z M-2 26 C-3.87243424 28.36089534 -3.99221556 29.93902191 -4.375 32.9375 C-3.89356903 36.86918629 -2.94240806 38.35937738 0 41 C4.5113818 42.47487482 7.21919985 42.15821405 11.375 40.125 C13.8524256 38.78136581 13.8524256 38.78136581 16 37 C16.07244053 34.98035801 16.08377188 32.95832876 16.0625 30.9375 C16.05347656 29.83277344 16.04445313 28.72804688 16.03515625 27.58984375 C16.02355469 26.73519531 16.01195312 25.88054687 16 25 C8.85932983 22.80287072 4.75357422 22.4981467 -2 26 Z " fill="#2B2A29" transform="translate(939,1273)"/>
<path d="M0 0 C4.95 0 9.9 0 15 0 C13.5262962 7.39365433 12.05120609 14.7870304 10.57495117 22.18017578 C10.07524148 24.68368453 9.57587989 27.1872628 9.0769043 29.69091797 C7.39497087 38.12937953 5.70429358 46.56602449 4 55 C3.7600531 56.18754883 3.5201062 57.37509766 3.27288818 58.59863281 C2.58644908 61.98342119 1.89404637 65.36692481 1.19921875 68.75 C0.99158401 69.77432129 0.78394928 70.79864258 0.57002258 71.85400391 C0.28145638 73.2488501 0.28145638 73.2488501 -0.01293945 74.671875 C-0.18018021 75.4875293 -0.34742096 76.30318359 -0.51972961 77.14355469 C-1 79 -1 79 -2 80 C-5.33327842 80.1424478 -8.66453893 80.04222103 -12 80 C-11.40074142 70.5526014 -10.03776984 61.28288844 -8.49609375 51.953125 C-8.25049603 50.44576486 -8.00530998 48.9383376 -7.76051331 47.43084717 C-7.12181084 43.50449167 -6.47760078 39.57906013 -5.83215332 35.65380859 C-5.17181653 31.63173864 -4.51681151 27.60880074 -3.86132812 23.5859375 C-2.57937097 15.7231082 -1.29108824 7.86133512 0 0 Z " fill="#D7B56D" transform="translate(1318,1040)"/>
<path d="M0 0 C5.19018611 1.51283452 9.16307187 3.23154633 12 8 C13.47772226 14.65547777 11.71459447 20.76100827 9.3125 26.9375 C9.06894775 27.57598877 8.82539551 28.21447754 8.57446289 28.87231445 C6.80326867 33.09042831 4.88655137 35.58499785 1 38 C-4.63848375 39.39933173 -9.98770062 37.72983815 -15.046875 35.19140625 C-17.90601076 33.44733344 -19.44096826 31.9824955 -21 29 C-21.78498753 23.11259349 -20.6087936 19.55602764 -18.0078125 14.30859375 C-16.6746668 11.25475999 -16.15849433 8.23049795 -15.6875 4.9453125 C-13.3197299 -1.75440062 -5.76975831 -0.70856681 0 0 Z " fill="#393185" transform="translate(878,695)"/>
<path d="M0 0 C2.64 0 5.28 0 8 0 C8.01981934 1.00377686 8.03963867 2.00755371 8.06005859 3.04174805 C8.13633749 6.77864966 8.22501986 10.51517317 8.31738281 14.25170898 C8.35558072 15.8665417 8.39044945 17.48145684 8.421875 19.09643555 C8.46772609 21.42266217 8.52568584 23.74832592 8.5859375 26.07421875 C8.59748871 26.79212082 8.60903992 27.51002289 8.62094116 28.24967957 C8.73732343 32.23454818 9.14443944 35.44520663 11 39 C13.86231205 41.05142449 15.99593982 41.22405572 19.4375 40.8125 C20.17871094 40.73644531 20.91992188 40.66039062 21.68359375 40.58203125 C24.76142342 39.80868113 26.52965924 39.04655214 29 37 C29.52523427 34.0234132 29.72180719 31.59595923 29.70703125 28.61328125 C29.72215256 27.79627243 29.73727386 26.97926361 29.75285339 26.13749695 C29.79582961 23.52888608 29.80457742 20.92143003 29.8125 18.3125 C29.83563677 16.54358888 29.8610004 14.77470537 29.88867188 13.00585938 C29.95162163 8.6704704 29.98387941 4.33580582 30 0 C32.97 0 35.94 0 39 0 C39 16.17 39 32.34 39 49 C36.03 49 33.06 49 30 49 C29.67 48.34 29.34 47.68 29 47 C27.845 47.495 26.69 47.99 25.5 48.5 C19.70765699 50.64531223 15.23994322 50.70931535 9.25 48.8125 C4.88500181 46.37817409 2.81216325 43.96058168 0.90673828 39.36083984 C-0.17004635 35.3697205 -0.25121848 31.63612566 -0.1953125 27.5390625 C-0.1924826 26.74849457 -0.18965271 25.95792664 -0.18673706 25.1434021 C-0.17560955 22.63710916 -0.15051926 20.13118355 -0.125 17.625 C-0.11496058 15.91797394 -0.10583641 14.21094223 -0.09765625 12.50390625 C-0.07569463 8.3357976 -0.04121671 4.16796092 0 0 Z " fill="#2B2A29" transform="translate(544,1273)"/>
<path d="M0 0 C4.58912757 2.63146402 6.15825058 4.67815269 7.6875 9.828125 C9.27520356 17.20108825 8.83497565 24.81139433 8.75 32.3125 C8.73995008 33.86132234 8.73082779 35.41015099 8.72265625 36.95898438 C8.70080207 40.72281428 8.66638343 44.48633623 8.625 48.25 C5.985 48.25 3.345 48.25 0.625 48.25 C0.60518066 47.3528125 0.58536133 46.455625 0.56494141 45.53125 C0.48635239 42.16885603 0.39964529 38.8068671 0.30761719 35.44482422 C0.26958384 33.99601152 0.23468863 32.54711261 0.203125 31.09814453 C0.17890769 19.96651805 0.17890769 19.96651805 -2.375 9.25 C-4.54782311 7.48057021 -5.76145328 7.28346618 -8.5234375 7.1328125 C-9.25820313 7.21273438 -9.99296875 7.29265625 -10.75 7.375 C-11.47960937 7.43945312 -12.20921875 7.50390625 -12.9609375 7.5703125 C-16.46657134 8.55733562 -18.59279415 9.87589474 -21.375 12.25 C-21.99468961 15.26350006 -22.21543451 17.50139603 -22.1796875 20.515625 C-22.20024704 21.70572174 -22.20024704 21.70572174 -22.22122192 22.91986084 C-22.25853163 25.44715021 -22.25480701 27.97247427 -22.25 30.5 C-22.26812635 32.21617656 -22.28892885 33.93232709 -22.3125 35.6484375 C-22.36435915 39.84928778 -22.37943026 44.04884717 -22.375 48.25 C-25.015 48.25 -27.655 48.25 -30.375 48.25 C-30.375 32.08 -30.375 15.91 -30.375 -0.75 C-27.735 -0.75 -25.095 -0.75 -22.375 -0.75 C-22.375 0.24 -22.375 1.23 -22.375 2.25 C-21.82972656 1.96125 -21.28445313 1.6725 -20.72265625 1.375 C-13.52506282 -2.16843061 -7.4909906 -3.45105965 0 0 Z " fill="#2B2A29" transform="translate(446.375,1273.75)"/>
<path d="M0 0 C3.84237377 2.30031246 5.39822919 5.96421883 6.76171875 10.0546875 C6.84702005 12.93163421 6.8775752 15.78368932 6.859375 18.66015625 C6.85796005 19.49936111 6.8565451 20.33856598 6.85508728 21.20320129 C6.8494909 23.88289966 6.8369391 26.5625144 6.82421875 29.2421875 C6.81920328 31.05924358 6.81464046 32.87630098 6.81054688 34.69335938 C6.79952266 39.14716763 6.78226053 43.60091339 6.76171875 48.0546875 C4.12171875 48.0546875 1.48171875 48.0546875 -1.23828125 48.0546875 C-1.25810059 46.98508789 -1.27791992 45.91548828 -1.29833984 44.81347656 C-1.37449105 40.83993238 -1.46319367 36.86674984 -1.55566406 32.89355469 C-1.59391452 31.17487739 -1.62877428 29.45612112 -1.66015625 27.73730469 C-1.70589253 25.2646871 -1.76387209 22.79261137 -1.82421875 20.3203125 C-1.83576996 19.55350159 -1.84732117 18.78669067 -1.85922241 17.99664307 C-1.99076647 12.71218441 -1.99076647 12.71218441 -4.23828125 8.0546875 C-7.94997384 6.57617095 -11.79968722 6.52956404 -15.5390625 7.89453125 C-16.91801793 8.60291603 -18.27766427 9.35088546 -19.609375 10.14453125 C-21.23828125 11.0546875 -21.23828125 11.0546875 -23.23828125 11.0546875 C-23.23828125 23.2646875 -23.23828125 35.4746875 -23.23828125 48.0546875 C-25.87828125 48.0546875 -28.51828125 48.0546875 -31.23828125 48.0546875 C-31.23828125 31.8846875 -31.23828125 15.7146875 -31.23828125 -0.9453125 C-28.59828125 -0.9453125 -25.95828125 -0.9453125 -23.23828125 -0.9453125 C-23.23828125 0.0446875 -23.23828125 1.0346875 -23.23828125 2.0546875 C-22.40296875 1.6215625 -22.40296875 1.6215625 -21.55078125 1.1796875 C-14.00295476 -2.49222809 -7.95150084 -3.28057991 0 0 Z " fill="#2B2A29" transform="translate(651.23828125,1273.9453125)"/>
<path d="M0 0 C3.70692069 2.90542432 4.80003867 5.49287545 6 10 C6.25402735 12.89767677 6.23386376 15.77277215 6.1953125 18.6796875 C6.1924826 19.49245148 6.18965271 20.30521545 6.18673706 21.14260864 C6.17560619 23.72022675 6.15051515 26.29748819 6.125 28.875 C6.11496101 30.63020329 6.10583677 32.38541206 6.09765625 34.140625 C6.07569015 38.42721926 6.04120978 42.7135493 6 47 C3.36 47 0.72 47 -2 47 C-2.02505615 45.96593018 -2.0501123 44.93186035 -2.07592773 43.86645508 C-2.1703343 40.01786613 -2.27047291 36.16944371 -2.37231445 32.32104492 C-2.41553784 30.65767319 -2.45722146 28.99426068 -2.49731445 27.33081055 C-2.55532332 24.93525932 -2.61892829 22.53991092 -2.68359375 20.14453125 C-2.70030624 19.4047554 -2.71701874 18.66497955 -2.73423767 17.90278625 C-2.8407276 14.16354068 -3.12187752 10.64061456 -4 7 C-10.69736399 5.88152674 -14.97510978 5.7365178 -21 9 C-21.99 9.495 -21.99 9.495 -23 10 C-23.33 22.21 -23.66 34.42 -24 47 C-26.64 47 -29.28 47 -32 47 C-32 30.83 -32 14.66 -32 -2 C-29.36 -2 -26.72 -2 -24 -2 C-23.67 -1.34 -23.34 -0.68 -23 0 C-21.845 -0.495 -20.69 -0.99 -19.5 -1.5 C-12.43669477 -4.11603897 -6.74861431 -3.63386925 0 0 Z " fill="#2B2A29" transform="translate(1608,1275)"/>
<path d="M0 0 C1.03125 0.495 2.0625 0.99 3.125 1.5 C3.125 4.47 3.125 7.44 3.125 10.5 C2.50753906 10.2834375 1.89007812 10.066875 1.25390625 9.84375 C-4.43058695 7.97487552 -9.86693252 6.55394438 -15.875 7.5 C-16.865 8.16 -17.855 8.82 -18.875 9.5 C-19.12515873 13.08357241 -19.12515873 13.08357241 -18.875 16.5 C-18.25753906 16.67015625 -17.64007812 16.8403125 -17.00390625 17.015625 C-0.11337209 21.84883721 -0.11337209 21.84883721 4.125 27.5 C6.0220481 32.08453291 5.63708192 37.12546432 3.9375 41.6875 C1.33495401 45.72593343 -1.31619336 47.98039779 -5.875 49.5 C-14.44308852 50.03422135 -21.87943466 49.86655383 -29.875 46.5 C-29.875 43.2 -29.875 39.9 -29.875 36.5 C-28.823125 36.933125 -28.823125 36.933125 -27.75 37.375 C-26.80125 37.74625 -25.8525 38.1175 -24.875 38.5 C-24.00875 38.87125 -23.1425 39.2425 -22.25 39.625 C-17.49684666 40.85729902 -12.75936813 41.02140821 -7.875 40.5 C-6.885 39.84 -5.895 39.18 -4.875 38.5 C-4.62484127 34.91642759 -4.62484127 34.91642759 -4.875 31.5 C-8.48090494 29.50726306 -11.91398725 28.17209551 -15.875 27.125 C-20.64602988 25.76493266 -23.37710548 23.99789452 -26.875 20.5 C-28.97669635 16.29660729 -28.41138925 11.06526849 -27.875 6.5 C-22.97254827 -3.81475844 -9.3647942 -3.5411677 0 0 Z " fill="#2B2A29" transform="translate(785.875,1273.5)"/>
<path d="M0 0 C0 2.97 0 5.94 0 9 C-0.61746094 8.7834375 -1.23492188 8.566875 -1.87109375 8.34375 C-7.55558695 6.47487552 -12.99193252 5.05394438 -19 6 C-19.99 6.66 -20.98 7.32 -22 8 C-22.25015873 11.58357241 -22.25015873 11.58357241 -22 15 C-21.39414062 15.17015625 -20.78828125 15.3403125 -20.1640625 15.515625 C-17.42994528 16.30641583 -14.71451089 17.14433896 -12 18 C-11.0925 18.2784375 -10.185 18.556875 -9.25 18.84375 C-5.08711662 20.28093593 -1.82704954 21.45105001 0.625 25.25 C2.63903577 30.74282481 2.87044657 34.61772519 0.8125 40.25 C-1.81438033 44.23561154 -4.46941592 46.48980531 -9 48 C-17.95391723 48.65490282 -25.03348825 48.47242765 -33 44 C-33 41.03 -33 38.06 -33 35 C-27 37 -27 37 -24.25 38.125 C-19.78548164 39.32698571 -15.58998342 39.63553617 -11 39 C-8.1982517 37.5368109 -8.1982517 37.5368109 -7 35 C-6.6740144 32.37883489 -6.6740144 32.37883489 -8 30 C-11.58195229 27.64345244 -15.53814235 26.46369335 -19.5625 25.0625 C-23.67948316 23.59494954 -26.90405549 22.19914266 -30 19 C-31.65740522 14.02778434 -32.36539451 7.878093 -30.05859375 3.015625 C-22.85834458 -6.10318586 -9.43912835 -4.44194275 0 0 Z " fill="#2B2A29" transform="translate(748,1275)"/>
<path d="M0 0 C2.97 0 5.94 0 9 0 C9.47626831 1.12643921 9.47626831 1.12643921 9.9621582 2.27563477 C11.41209769 5.70466364 12.86229659 9.13358274 14.3125 12.5625 C14.81201172 13.74392578 15.31152344 14.92535156 15.82617188 16.14257812 C18.2051539 21.7670588 20.58641641 27.39027159 23 33 C25.55739578 30.44260422 26.50306348 27.58651967 27.78515625 24.27734375 C28.04630722 23.61666397 28.30745819 22.95598419 28.57652283 22.27528381 C29.41011056 20.16459123 30.23673251 18.05126307 31.0625 15.9375 C31.89273253 13.82053899 32.7244497 11.70419271 33.55918884 9.58900452 C34.07843923 8.27244408 34.59492086 6.95478776 35.1084137 5.63597107 C36.88826809 1.11173191 36.88826809 1.11173191 38 0 C41.00003445 -0.14177857 43.99757235 -0.04228771 47 0 C42.79634335 11.44361235 38.29884944 22.74104354 33.625 34 C32.97762458 35.56500491 32.33048812 37.13010869 31.68359375 38.6953125 C30.12513245 42.46468061 28.56349871 46.23271874 27 50 C24.69 50 22.38 50 20 50 C16.92382812 42.6171875 13.84765625 35.234375 10.77148438 27.8515625 C10.43929901 27.05447876 10.10711365 26.25739502 9.76486206 25.43615723 C9.10369376 23.84902895 8.44298478 22.26170925 7.78274536 20.67419434 C6.3311006 17.18509939 4.87524696 13.69819527 3.39599609 10.22070312 C2.93918457 9.14240234 2.48237305 8.06410156 2.01171875 6.953125 C1.61815186 6.03176758 1.22458496 5.11041016 0.8190918 4.16113281 C0 2 0 2 0 0 Z " fill="#2B2A29" transform="translate(1378,1273)"/>
<path d="M0 0 C0 2.97 0 5.94 0 9 C-2.76276177 8.47731534 -5.3260876 7.89130413 -8 7 C-13.2142052 6.50068051 -17.64410807 6.41890346 -22.5 8.5 C-26.81854986 12.81854986 -28.12485818 17.46532848 -28.375 23.5 C-28.12485818 29.53467152 -26.81854986 34.18145014 -22.5 38.5 C-14.4536242 41.94844677 -6.86138278 40.09300306 1 37 C1.99 39.64 2.98 42.28 4 45 C-4.58738252 49.52605573 -14.08337181 50.87676802 -23.5625 48.3046875 C-29.49039482 45.632644 -32.81254743 41.25206522 -35.8125 35.5625 C-38.70844443 26.89131008 -38.21845964 16.34335421 -34.33203125 8.08984375 C-26.91167365 -3.55206626 -12.09077804 -4.49889416 0 0 Z " fill="#2B2A29" transform="translate(1008,1274)"/>
<path d="M0 0 C0 2.64 0 5.28 0 8 C-2.64 8 -5.28 8 -8 8 C-9.52106634 11.04213267 -9.37429338 14.28047572 -9.5625 17.625 C-9.60568359 18.33140625 -9.64886719 19.0378125 -9.69335938 19.765625 C-9.79944751 21.51018537 -9.90022889 23.25506697 -10 25 C-6.7 25 -3.4 25 0 25 C0 27.64 0 30.28 0 33 C-3.3 33 -6.6 33 -10 33 C-10 46.53 -10 60.06 -10 74 C-12.64 74 -15.28 74 -18 74 C-18 60.47 -18 46.94 -18 33 C-19.65 33 -21.3 33 -23 33 C-23 30.36 -23 27.72 -23 25 C-21.35 25 -19.7 25 -18 25 C-18.03480469 23.85402344 -18.06960938 22.70804688 -18.10546875 21.52734375 C-18.13362703 19.99741061 -18.16092499 18.46746146 -18.1875 16.9375 C-18.21263672 16.18533203 -18.23777344 15.43316406 -18.26367188 14.65820312 C-18.33268789 9.34396995 -17.56701127 5.68706058 -15 1 C-10.53867299 -1.3320573 -4.65220728 -2.32610364 0 0 Z " fill="#2B2A29" transform="translate(538,1248)"/>
<path d="M0 0 C2.64 0 5.28 0 8 0 C8 5.28 8 10.56 8 16 C11.63 16 15.26 16 19 16 C19 18.64 19 21.28 19 24 C15.37 24 11.74 24 8 24 C8.33 34.89 8.66 45.78 9 57 C12.3 57 15.6 57 19 57 C19 59.64 19 62.28 19 65 C14.07349033 66.64216989 9.08145946 66.53143646 4.0625 65.25 C1.46394287 63.67511689 1.0363164 62.86089779 0 60 C-0.16858166 57.20915781 -0.23284241 54.52228007 -0.1953125 51.734375 C-0.19106766 50.54427826 -0.19106766 50.54427826 -0.18673706 49.33013916 C-0.17556779 46.80327083 -0.15046944 44.27676068 -0.125 41.75 C-0.11496598 40.0338593 -0.10584087 38.31771302 -0.09765625 36.6015625 C-0.07563914 32.40090426 -0.04113187 28.2005128 0 24 C-1.98 24 -3.96 24 -6 24 C-6 21.36 -6 18.72 -6 16 C-4.02 16 -2.04 16 0 16 C0 10.72 0 5.44 0 0 Z " fill="#2B2A29" transform="translate(1337,1257)"/>
<path d="M0 0 C2.64 0 5.28 0 8 0 C8 5.28 8 10.56 8 16 C11.63 16 15.26 16 19 16 C19 18.64 19 21.28 19 24 C15.37 24 11.74 24 8 24 C8.11833202 28.21771839 8.24258602 32.43520823 8.37231445 36.65258789 C8.41560793 38.08711003 8.45728699 39.52168184 8.49731445 40.95629883 C8.55515267 43.0191952 8.61880753 45.08184283 8.68359375 47.14453125 C8.72025146 48.38565674 8.75690918 49.62678223 8.79467773 50.90551758 C8.87144121 54.03553347 8.87144121 54.03553347 10 57 C12.97 57 15.94 57 19 57 C19 59.64 19 62.28 19 65 C15.30491443 66.84754279 11.0415043 66.33732241 7 66 C4 64.9375 4 64.9375 2 63 C0.22463289 57.9890088 -0.23784215 53.61134809 -0.1953125 48.31640625 C-0.1924826 47.61603745 -0.18965271 46.91566864 -0.18673706 46.19407654 C-0.17564885 43.9833683 -0.15056703 41.77308329 -0.125 39.5625 C-0.11495546 38.05274028 -0.1058322 36.54297412 -0.09765625 35.03320312 C-0.07574714 31.35533403 -0.04129758 27.6777084 0 24 C-1.65 24 -3.3 24 -5 24 C-5 21.36 -5 18.72 -5 16 C-3.35 16 -1.7 16 0 16 C0 10.72 0 5.44 0 0 Z " fill="#2B2A29" transform="translate(1472,1257)"/>
<path d="M0 0 C2.64 0 5.28 0 8 0 C8.01030746 0.81210434 8.02061493 1.62420868 8.03123474 2.46092224 C8.12903979 10.09836488 8.23152948 17.73572322 8.33933926 25.37303066 C8.39460415 29.29984614 8.4480297 33.22666901 8.49731445 37.15356445 C8.54490561 40.94020842 8.59724624 44.72675916 8.65294075 48.51329231 C8.67338818 49.96101638 8.69209724 51.40876603 8.70907402 52.85653496 C8.73306508 54.87764159 8.76370075 56.8986661 8.79467773 58.91967773 C8.81022202 60.07217514 8.8257663 61.22467255 8.84178162 62.41209412 C8.70882632 64.92970589 8.70882632 64.92970589 10 66 C12.33297433 66.04092937 14.66705225 66.04241723 17 66 C17 68.97 17 71.94 17 75 C6.08270086 75.57236326 6.08270086 75.57236326 2 72 C-0.3077056 68.48724591 -0.2423774 65.44189693 -0.22705078 61.30371094 C-0.22734283 60.63988403 -0.22763489 59.97605713 -0.22793579 59.29211426 C-0.22654658 57.10606649 -0.21100503 54.92036296 -0.1953125 52.734375 C-0.19158091 51.21551703 -0.18873463 49.69665665 -0.18673706 48.17779541 C-0.1791121 44.18617063 -0.15947344 40.19469211 -0.1373291 36.203125 C-0.11684614 32.12762429 -0.10773011 28.05209988 -0.09765625 23.9765625 C-0.07622641 15.98430799 -0.04210426 7.99217221 0 0 Z " fill="#2B2A29" transform="translate(1668,1248)"/>
<path d="M0 0 C2.64 0 5.28 0 8 0 C8.33 21.78 8.66 43.56 9 66 C11.64 66 14.28 66 17 66 C17.09765625 72.15234375 17.09765625 72.15234375 17 74 C15.43966377 75.56033623 13.91052864 75.20707559 11.75 75.25 C7.68780609 75.20479275 5.2241093 74.63790761 2 72 C-0.42920859 68.35618712 -0.24285565 66.66387555 -0.22705078 62.32543945 C-0.22734283 61.652005 -0.22763489 60.97857056 -0.22793579 60.284729 C-0.22654344 58.06078161 -0.21098703 55.83717005 -0.1953125 53.61328125 C-0.19158203 52.07057376 -0.18873522 50.5278639 -0.18673706 48.9851532 C-0.17910329 44.92611136 -0.15945706 40.8672128 -0.1373291 36.80822754 C-0.11686512 32.6657912 -0.10773416 28.5233317 -0.09765625 24.38085938 C-0.07621088 16.25384052 -0.04207808 8.12693809 0 0 Z " fill="#2B2A29" transform="translate(596,1248)"/>
<path d="M0 0 C2.97 0 5.94 0 9 0 C9 21.78 9 43.56 9 66 C6.03 66 3.06 66 0 66 C0 44.22 0 22.44 0 0 Z " fill="#4D4536" transform="translate(1127,1256)"/>
<path d="M0 0 C0 2.64 0 5.28 0 8 C-0.97839844 8.14695312 -0.97839844 8.14695312 -1.9765625 8.296875 C-2.85054687 8.44640625 -3.72453125 8.5959375 -4.625 8.75 C-5.48351563 8.88921875 -6.34203125 9.0284375 -7.2265625 9.171875 C-10.86555542 10.25844753 -13.1003984 11.51575205 -16 14 C-16.61968961 17.01350006 -16.84043451 19.25139603 -16.8046875 22.265625 C-16.82524704 23.45572174 -16.82524704 23.45572174 -16.84622192 24.66986084 C-16.88353163 27.19715021 -16.87980701 29.72247427 -16.875 32.25 C-16.89312635 33.96617656 -16.91392885 35.68232709 -16.9375 37.3984375 C-16.98935915 41.59928778 -17.00443026 45.79884717 -17 50 C-19.64 50 -22.28 50 -25 50 C-25 33.83 -25 17.66 -25 1 C-22.36 1 -19.72 1 -17 1 C-17 1.99 -17 2.98 -17 4 C-16.35933594 3.71125 -15.71867187 3.4225 -15.05859375 3.125 C-9.76085568 0.85115713 -5.76627391 -0.50141512 0 0 Z " fill="#2B2A29" transform="translate(2023,1272)"/>
<path d="M0 0 C2.64 0 5.28 0 8 0 C8 16.17 8 32.34 8 49 C5.36 49 2.72 49 0 49 C0 32.83 0 16.66 0 0 Z " fill="#2B2A29" transform="translate(1500,1273)"/>
<path d="M0 0 C2.64 0 5.28 0 8 0 C8 16.17 8 32.34 8 49 C5.36 49 2.72 49 0 49 C0 32.83 0 16.66 0 0 Z " fill="#2B2A29" transform="translate(1364,1273)"/>
<path d="M0 0 C2.64 0 5.28 0 8 0 C8 16.17 8 32.34 8 49 C5.36 49 2.72 49 0 49 C0 32.83 0 16.66 0 0 Z " fill="#2B2A29" transform="translate(395,1273)"/>
<path d="M0 0 C4.29 0 8.58 0 13 0 C9.4556962 23.5443038 9.4556962 23.5443038 8 25 C5.81360547 25.07258946 3.62499611 25.08373783 1.4375 25.0625 C-0.35880859 25.04896484 -0.35880859 25.04896484 -2.19140625 25.03515625 C-3.11824219 25.02355469 -4.04507812 25.01195312 -5 25 C-4.35929989 21.20744718 -3.71157345 17.416128 -3.0625 13.625 C-2.88009766 12.54476563 -2.69769531 11.46453125 -2.50976562 10.3515625 C-2.33251953 9.3203125 -2.15527344 8.2890625 -1.97265625 7.2265625 C-1.81031494 6.27346191 -1.64797363 5.32036133 -1.48071289 4.33837891 C-1 2 -1 2 0 0 Z " fill="#D7B56D" transform="translate(1303,1128)"/>
<path d="M0 0 C2.64 0 5.28 0 8 0 C8 5.28 8 10.56 8 16 C5.36 16 2.72 16 0 16 C0 10.72 0 5.44 0 0 Z " fill="#2B2A29" transform="translate(1500,1252)"/>
<path d="M0 0 C2.64 0 5.28 0 8 0 C8 5.28 8 10.56 8 16 C5.36 16 2.72 16 0 16 C0 10.72 0 5.44 0 0 Z " fill="#2B2A29" transform="translate(1364,1252)"/>
<path d="M0 0 C2.64 0 5.28 0 8 0 C8 5.28 8 10.56 8 16 C5.36 16 2.72 16 0 16 C0 10.72 0 5.44 0 0 Z " fill="#2B2A29" transform="translate(395,1252)"/>
</svg>
